<?xml version="1.0" encoding="UTF-8"?>
<!DOCTYPE svg PUBLIC "-//W3C//DTD SVG 1.1//EN" "http://www.w3.org/Graphics/SVG/1.1/DTD/svg11.dtd">
<!-- Creator: CorelDRAW 2021 (64-Bit) -->
<svg xmlns="http://www.w3.org/2000/svg" xml:space="preserve" width="2in" height="2in" version="1.1" style="shape-rendering:geometricPrecision; text-rendering:geometricPrecision; image-rendering:optimizeQuality; fill-rule:evenodd; clip-rule:evenodd"
viewBox="0 0 2000 2000"
 xmlns:xlink="http://www.w3.org/1999/xlink"
 xmlns:xodm="http://www.corel.com/coreldraw/odm/2003">
 <defs>
  <style type="text/css">
   <![CDATA[
    .fil0 {fill:black}
   ]]>
  </style>
 </defs>
 <g id="Layer_x0020_1">
  <metadata id="CorelCorpID_0Corel-Layer"/>
  <path class="fil0" d="M1520.86 1017.5c-2.26,3.97 -8.84,9.3 -12.95,12.96 -0.69,0.61 -1.68,1.41 -2.29,1.81 -2.45,1.6 -0.64,0.48 -3.22,1.71l-0.03 -0.05c-1.2,2.12 -0.28,0.89 -1.42,2.44 -1.44,1.96 0.28,-0.26 -1,1.14 -0.5,0.54 -1.37,1.27 -2.04,1.96l-30.61 26.3 -64.63 58.25 -5.11 5.93c-2.79,2.91 -12.52,11.72 -16.85,13.12l-91.48 82.19c-4.24,3.75 -36.11,11.21 -42.66,12.4 -4.58,0.83 -4.17,1.67 -8.13,2.67l-60.66 15.54c-9.88,1.53 -23.34,6.83 -33.54,9.23l-34.28 9.44c-10.85,1.83 -14.55,2.45 -26.2,6.1 -15.39,4.83 -12.37,2.46 -18.13,4.02 -5.34,1.44 -0.89,1.54 -7.47,3.02 -4.3,0.96 -4.86,1.61 -8.34,2.64l-34.77 8.54c-4.29,1.14 -4.6,1.08 -8.2,2.53l-26.7 6.44c-3.24,1.04 -6.08,0.98 -8.97,2.05l-42.14 11.67c-14.91,2.98 -41.68,12.37 -53.13,12.59 0.99,-4.65 -1.01,-0.94 2.3,-4.57l10.2 -7.79c2.87,-2 4.59,-3.07 7.33,-4.74l6.29 -4.29c1.57,-4.67 1.24,-3.19 5.43,-5.78 2.39,-1.48 3.73,-1.88 5.83,-3.22 3.96,-2.54 8.21,-5.56 13.08,-6.68 4.47,-0.1 3.32,-1.44 8.91,-4.24l9.1 -3.97c0.25,-0.15 0.94,-0.63 1.2,-0.79l1.26 -0.77c1.02,-0.65 0.78,-0.49 1.81,-1.15 3.05,-1.96 1.06,-0.79 4.54,-2.32l4.62 -2.33c1.81,-0.67 3.02,-0.61 4.91,-1.28 2.37,-0.85 6.09,-3.07 9.75,-4.3 4.2,-1.41 5.64,-2.11 9.31,-3.63l10.15 -3.9c4.61,-1.67 0.2,-0.79 4.59,-2.23 1.91,-0.63 2.98,-0.48 4.95,-1.18l55.94 -18.81c4.72,-1.85 0.19,-0.7 3.66,-2.11l84.58 -23.51c4.75,-1.74 7.25,-1.32 11.59,-2.68l15.01 -4.91c2.44,-0.67 4.3,-0.34 6.31,-0.89 4.57,-1.25 -1.29,-0.44 4.54,-2.28 6.17,-1.93 -1.2,1.5 9.67,-3.23l24.51 -9.43c8.39,-3.56 16.59,-9.49 23.49,-14.54 1.3,-2.01 0.21,-0.8 2.09,-2.82l11.89 -11.89c1.67,-1.47 0.94,-0.85 3.11,-1.97 2.77,-2.55 3.14,-4.44 5.42,-7.59 9.13,-12.6 11.22,-19.25 15.95,-32.79 1.07,-3.07 1.02,-1.59 1.54,-5.57 0.92,-7.02 1.07,-6.09 2.48,-11.44 3.31,-12.54 0.1,-40.55 -1.93,-52.8 -1.06,-6.44 -1.96,-5.47 -3.12,-10.75l-4.22 -11.93c-5.31,-10.57 -2.2,-9.87 -7.94,-18.17l-5.75 -8.17c-2.5,-3.13 -4.58,-4.99 -5.87,-7.41l-17.83 -15.81c-4.58,-3.78 -3.39,-1.94 -5.25,-5.69 -4.74,0.44 -0.86,-0.84 -11.85,-5.48 -4.81,-2.03 -5.07,-4.04 -10.57,-6.04 -4.72,-1.71 -6.91,-2.67 -12.41,-4.57 -17.71,-6.11 -59.76,-8.39 -78.19,-4.76 -2.88,0.57 -2.74,1.61 -6.38,2.3 -2.84,0.53 -5.63,0.14 -8.35,0.84 -1.7,0.44 -2.96,1.57 -6.74,2.2 -2.48,0.41 -4.95,0.26 -7.2,0.89l-31.05 11.46c-10.43,4.27 -6.68,1.67 -17.91,6.98l-76.41 30.23c-0.23,0.08 -0.48,0.19 -0.71,0.26l-8.91 3.08c-2.94,0.9 -4.68,0.39 -7.75,1.59l-86.58 24.1c-5.59,0.81 -7.42,2.54 -13.94,2.94 -7.1,0.44 -8.89,0.9 -14.76,2.37 -6.86,1.71 -24,1.44 -32.02,2.42 -16.36,2 -48.52,1.08 -64.68,-2.88 -8.34,-2.04 -19.98,-3.94 -29.01,-4.98 -7.37,-0.85 -7.69,-2.76 -13.35,-3.17l-45.62 -6.87c-2.42,-0.69 -3.08,-1.75 -6.39,-2.15l-22.75 -2.56c-29.78,-3.89 -54.92,1.29 -82.11,2.44 -6.44,0.27 -8.43,1.7 -14.2,2.56 -2.88,0.43 -5.77,0.26 -8.5,0.7 -2.76,0.45 -3.07,1.12 -5.85,1.89 -5.15,1.43 -8.6,0.5 -14.44,2.65 -4.59,1.69 -8.37,3.21 -12.89,3.94 -18.03,2.93 -22.47,7.33 -37.67,12.94 -4.78,1.76 -8.78,2.87 -12.98,5.14l-11.69 5.28c-11.17,5.15 -57.57,30.29 -62.02,39.06 -1.04,3.82 -0.2,2.24 -2.5,4.48 -2.26,2.2 -7.74,7.12 -11.12,6.9l-22.67 22.6c-0.14,-0.22 -0.56,0.32 -0.85,0.49 -0.38,0.44 -1.6,1.84 -2.39,2.74 -0.28,0.32 -2.25,2.57 -2.38,2.7 -9.34,9.42 -14.25,17.03 -22.55,27.37l-0.93 1.07c-5.66,6.83 -9.62,14.87 -14.77,22.12l-3.63 6.26c-6.3,11.5 -12.31,21.81 -17.85,34.1 -4.47,9.92 -8.35,18.54 -12.37,28.6l-5.13 15c-6.31,14.75 -10.03,31.3 -14.23,46.59l-10.82 50.25c-1.12,6.19 -0.66,11.86 -2.15,17.94 -5.35,21.81 -3.29,38.67 -6.69,53.77 -2.7,12.02 -1.08,262.48 -1.08,300.61 0,8.64 -1.93,32.96 1.65,39.3 3.14,5.56 9.71,12.08 16.24,12.97 10.51,1.44 296.32,0.18 333.49,0.18l100.95 -0.02c4.42,-0.08 4.82,0.12 7.91,-1.61 1.51,-0.85 1.78,-1.17 3.07,-1.94 0.85,-0.5 2.63,-1.38 3.28,-1.81l7.33 -12.19c1.31,-5.04 1.93,-30.01 4.62,-36.6 4.55,-11.13 5.89,-16.41 13.35,-26.57 4.54,-6.19 8.18,-12.07 13.69,-17.28 6.32,-5.99 22.45,-17.16 30.06,-19.69 13.14,-4.38 27.35,-7.64 41.29,-9.94l24.25 -5.71c3.35,-0.62 5.35,-0.54 8.39,-1.54l16.76 -4.2c3.17,-0.79 5.76,-0.44 8.88,-1.27 2.5,-0.66 4.56,-1.87 7.27,-2.45 4.02,-0.86 4.48,-0.47 8.27,-1.79 8,-2.79 16.51,-3.61 24.81,-5.19 3.53,-0.67 5.06,-1.7 7.69,-2.24l75.54 -16.47c4.07,-0.59 3.87,-1.5 7.5,-2.33l58.17 -12.91c2.44,-0.52 4.83,-1.96 7.02,-2.58 2.96,-0.85 6,-0.43 9.16,-1.04 3.41,-0.67 3.03,-1.41 7.68,-2.26 3.06,-0.56 5.98,-0.48 8.8,-1.37 3.17,-1 3.35,-1.67 7.7,-2.16 8.47,-0.95 16.43,-3.86 24.85,-5.51 3.9,-0.76 4.52,-0.69 7.87,-1.81 5.4,-1.82 14.14,-0.84 17.52,-2.64 4.09,-2.18 0.65,-1.79 7.59,-2.57 6.88,-0.77 2.33,-0.67 7.42,-2.27 3.04,-0.96 6.12,-0.36 8.98,-1.26 3.39,-1.06 0.98,-1.9 7.59,-2.45 7.48,-0.63 3.59,-0.12 8.49,-2.12 2.81,-1.15 5.31,-0.95 8.2,-1.89l16.03 -3.96c2.89,-1 5.49,-1.06 8.26,-1.78 3.41,-0.9 3.68,-1.8 6.93,-2.69 5.14,-1.41 11.66,-1.4 16.56,-3.72 4.71,-2.23 0.93,-2.31 7.43,-2.76 7.87,-0.54 8.02,-2 17.02,-3.34 5.71,-0.85 3.06,-1.73 7.26,-2.62 10.46,-2.21 23.21,-3.35 33.21,-7.2l16.04 -4.81c20.85,-6.65 21.3,-4.26 38.09,-21.89l111.05 -110.69c2.59,-2.43 2.48,-2.31 4.83,-5.09 12.05,-14.28 27.54,-26.41 40.33,-40.64l25.4 -24.49c6.08,-6.36 12.29,-14.5 19.25,-19.75l0.62 -3.35c4.96,-2.67 12.61,-12.86 15,-14.89 2.01,-1.7 3.05,-2.56 5.32,-4.76 3.67,-3.56 17.19,-18.7 21.01,-18.97 2.83,-3.66 7.76,-6.8 10.09,-9.77 3.56,-4.53 6.16,-6.73 10.37,-10.69l26.42 -26.5c1.91,-1.99 3.34,-3.27 4.97,-5.04l31.04 -30.89 0.62 -3.34c6.41,-3.44 10.94,-13.27 16.35,-13.65 1.02,-1.31 3.27,-3.48 5.02,-4.99 0.24,-0.2 2.74,-2.23 2.8,-2.29 1.84,-1.83 1.09,-0.16 1.64,-2.58 1.61,-5.04 20.76,-22.63 25.66,-27.97 6.85,-7.46 5.24,-1.02 8.5,-11.1l2.61 -5.87c0.13,-0.22 0.5,-0.31 0.6,-0.8 0.11,-0.52 0.43,-0.56 0.65,-0.83 -0.36,-5.72 0.66,-3.7 1.65,-7.48 1.89,-7.17 -1.22,-2.51 3.34,-15.5 1.13,-3.21 0.67,-4.63 1.07,-8.26 0.64,-5.8 1.2,-1.8 2.43,-7.2l6.83 -40.41c0.85,-5.97 2.52,-8.43 2.83,-16.37l4.15 -23.61c0.68,-2.98 1.53,-2.72 2.15,-6.48l3.68 -25.54c0.6,-3.23 1.11,-2.57 1.88,-7.09l8.5 -48.09c1.54,-5.11 1.3,-11.92 2.13,-17 0.62,-3.76 1.69,-5.06 2.24,-7.43 0.54,-2.31 0.5,-5.74 0.87,-8.13l9.97 -57.99c5.05,-14.48 0.35,-12.7 3.33,-22.64l11.76 -82.63c0.81,-4.64 2.31,-9.24 3.7,-14.67 1.66,-6.48 1.27,-10.58 2.31,-16.7 1.34,-7.91 2.08,-0.69 2.55,-15.51 0.15,-4.8 0.72,-10.49 -1.22,-14.84 -9.83,-21.96 -39.21,-15.25 -60.06,-12.58 -7.39,0.94 -9.89,1.29 -16.16,2.8 -13.45,3.23 -30.39,8.07 -42.83,14.12l-23.14 14.65c-0.58,0.4 -1.14,0.76 -1.79,1.24 -0.24,0.18 -0.91,0.69 -1.15,0.87 -16.63,12.81 -30.44,25.22 -42.73,45.35l-26.56 48.1c-1.57,4.86 -4.2,7.38 -5.7,13.2l-24.91 89.22c-0.94,6.27 -2.29,8.61 -3.13,14.94l-8.55 44.46c-2.95,9.88 -4.21,22.73 -5.27,26.48l-4.94 22.86c-0.95,5.67 -2.23,18.06 -5.81,22.3 -2.11,2.49 -2.63,2.54 -4.18,3.79zm-790.81 -207.59c-1.36,4.32 0.24,1.81 -3.64,4.46l-10.15 7.68c-3.04,2.41 -12.3,10.13 -15.67,10.27l-52.91 50.99c-4.52,4.18 -16.18,18.47 -18.7,25.33 -3.25,8.85 -5.24,25.04 -3.08,34.26 1.1,4.72 4.54,11.68 7.02,15.88l2.12 5.04c2,4.33 13.28,13.19 19.65,16.27l10.34 4.44c13.2,5.17 7.48,1.93 24.72,5.23 4.67,0.89 10.04,0.51 14.7,0.99 4.82,0.49 6.19,2.37 12.03,2.82 7.16,0.55 7.31,0.03 12.94,1.8 7.95,2.5 55.78,6.1 65.76,3.64 15.47,-3.82 20.07,-0.79 29.84,-3.2 3.8,-0.94 7.4,-1.61 12.4,-2.48l35.17 -8.79c4.45,-1.05 7.32,-2.12 11.5,-3.47l11.74 -3.35c5.11,-1.68 0.12,-1.11 5.59,-2.3 8.09,-1.76 20.1,-6.05 27.59,-9.49 11.61,-5.33 7.59,-2.69 21.61,-7.43 3.76,-1.27 7.39,-3.28 10.58,-4.35 2.02,-0.69 4.57,-0.88 6.44,-1.65 3.87,-1.58 2.23,-2.29 14.52,-6.13 8.24,-2.58 15.29,-6.44 21.31,-8.59 7.99,-2.85 14.52,-3.97 22.06,-7.07 14.3,-5.87 15.09,-3.81 26.41,-7.83l19.97 -5.84c6.2,-2.73 17.25,-3.6 24.21,-5.69 18.39,-5.51 62.41,-6.35 82,-4.18 6.29,0.7 7.33,1.71 12.78,2.34 10.25,1.18 30.54,9.31 33.34,9.74 3.65,0.75 8.01,2.02 11.54,3.95 12.09,6.63 16.83,8.24 29.46,17.61 7.91,5.88 22.23,19.15 28.5,26.58 2.61,3.1 2.24,1.94 3.07,5.57l16.97 27.26c0.11,0.18 0.3,0.41 0.41,0.59l0.77 1.26c5.52,9.81 6.9,14.69 10.92,25.06 8.01,20.68 20.28,28.87 38.92,34.66 10.02,3.11 25.71,-0.14 35.15,-4.65 8.57,-4.1 22.1,-17.27 24.67,-26.98 8.13,-30.72 2.25,-39.69 -12.24,-65.8l-14.25 -22.6c-1.38,-2.14 -0.61,-1.04 -1.81,-3.23 -4.75,-8.68 -5.78,-7.72 -8.67,-12.3 -2.09,-3.31 -2.69,-3.63 -4.94,-6.01 -2.16,-2.28 -2.3,-3.31 -4.19,-5.73l-9.36 -11.56c-3.66,-4.64 -5.61,-8.06 -9.16,-11.89 -3.24,-3.5 -6.24,-7.36 -9.88,-11.09l-20.78 -21.19c-4.13,-3.88 -6.65,-6.19 -10.81,-10.15 -9.43,-8.97 -23.37,-19.91 -34.54,-28.42 -10.79,-8.22 -29.69,-21.98 -41.13,-27.78l-6.68 -3.31c-6.39,-4.2 -12.98,-8.83 -19.74,-11.98l-70.13 -28.84c-11.65,-4.21 -30.15,-7.81 -42.06,-10.97l-16.81 -4.01c-10.18,-3.08 -11.53,-0.69 -18.95,-2.34 -15.29,-3.41 -18.47,-1.52 -27.57,-3.26 -17.3,-3.32 -42.76,-2.23 -60.7,-2 -18.96,0.24 -20.94,2.56 -38.98,3.05 -5.67,0.15 -4.97,0.45 -9.3,1.54 -3.15,0.8 -5.88,0.69 -9.04,1.18 -5.82,0.89 -10.96,2.28 -17.37,3.41l-57.22 16.18c-4.04,1.06 -3.32,1.44 -7.44,2.69 -8.57,2.59 -45.87,17.83 -52.1,22.05 -4.2,2.85 -1.46,1.09 -6.6,3.27l-21.19 10.94c-5.26,2.76 -1.87,0.67 -6.04,3.81 -4.17,3.13 -8.5,4.91 -13.11,7.98 -3.65,2.43 -8.66,6.02 -11.73,8.15zm-85.29 -598.76c-5.34,-0.74 -6.61,0.56 -10.25,1.73 -3.81,1.22 -7.33,0.59 -11.74,1.39l-32.02 7.8c-3.71,1.13 -7.87,0.93 -11.86,2.29l-20.63 5.23c-1.55,2.35 -0.52,2.73 -5.58,3.48 -4.53,0.67 -3.19,0.43 -6.29,1.7 -3.76,1.55 -8.13,2.26 -12.19,3.84 -16.87,6.58 -10.74,11.31 -17.63,14.45 -0.09,19.53 -1.01,16.89 12.16,34.95 7.68,10.54 6.58,10.81 14.44,21.57l15.61 20.34c8.17,10.72 17.13,19.72 21.78,26.16l33.77 36.11c13.61,13.65 38.78,35.44 54.34,47.5 4.75,3.68 2.39,2.83 10.14,7.76l13.75 9.17c5.36,0.61 7.25,3.65 12.61,6.51 1.95,1.04 2.84,1.85 5.47,3.24 2.77,1.46 3.11,1.73 4.86,4.28l55.76 26.19c2.2,0.83 3.4,0.75 5.61,1.51 2.8,0.96 11.5,5.13 15.13,4.89 8.02,-0.19 24.4,5.39 28.54,6 3.89,0.57 7.72,0.54 11.07,1.24 15.88,3.33 49.53,3.31 67.72,2.09l19.37 -3.46c4.25,-1.15 2.41,-1.45 8.48,-2.46l22.16 -7.69c2.39,-0.99 1.35,-1.06 5.31,-1.87 6.96,-0.96 14.1,-8.52 16.86,-8.94 2.56,-0.39 1.54,-0.25 2.92,0.53 1.88,2.07 0.79,138.3 0.75,159.9 -0.02,9.74 1.05,15.25 5.72,21.3 10.71,13.86 44.17,13.71 44.23,-19.3l-0 -107.87c0,-8.51 -1.71,-48.7 1.21,-52.68 0.1,-0.07 0.33,-0.24 0.36,-0.11l3.49 1.63c16.2,10.5 19.96,8.98 31.6,13.73l13.65 4.32c19.29,4.72 42.45,6.2 65.59,5.27 5.93,-0.24 8.56,-1.49 14.94,-1.68 7.08,-0.21 9.94,-1.2 15.62,-2.44 5.4,-1.18 11.45,-0.23 16.61,-1.67 4.68,-1.31 10.5,-1.88 14.83,-3.18 6.85,-2.06 8.37,-1.24 14.16,-3.81l7.33 -2.61c3.83,-1.91 -0.38,-0.91 5.49,-2.07 6.93,-1.37 2.76,-1.24 6.56,-2.53 3.12,-1.06 4.09,-0.18 7.62,-1.65 6.68,-2.79 5.97,-1.53 13.2,-4.87l23.41 -11.5c9.04,-4.25 14.59,-8.68 22.91,-13.26 9.71,-5.34 39.69,-28.81 49.9,-38.9 0.83,-0.83 1.1,-1.05 2.04,-1.82 0.16,-0.13 0.4,-0.3 0.56,-0.43l9.15 -7.9c1.45,-1.12 1.34,-0.94 2.91,-2.08l31.98 -30.96c4.38,-4.55 9.77,-12.82 16.74,-18.21 0.67,-3.88 13.34,-18.02 17.46,-22.43l3.52 -2.55c2.76,-3.26 6.75,-8.8 10.18,-12.77 2.57,-2.98 2.95,-4.27 4.97,-7.17 4.84,-6.94 23.26,-28.72 26.06,-33.74l4.22 -6.77c7.6,-9.31 7.43,-17.78 3.28,-27.83 -2.15,-5.21 -7.11,-8.95 -12.55,-11.56 -8.42,-4.05 -33.51,-9.33 -37.02,-10.91l-33.22 -8.54c-13.63,-4.5 -5.16,-1.18 -15.17,-2.78 -3.76,-0.61 -5.15,-2.04 -9.24,-2.55 -16.55,-2.07 -24.2,-5.08 -41.76,-6.32 -7.91,-0.56 -11.11,-2.64 -20.94,-2.88 -6.44,-0.16 -16.78,-0.2 -22.44,-1.76 -11.52,-3.19 -42.8,-1.42 -58.53,-1.24 -6.26,0.07 -5.72,0.92 -10.02,1.48 -14.51,1.89 -12.25,-0.17 -32.44,3.54 -3.65,0.67 -7.04,0.82 -10.48,1.43 -6.51,1.17 -12.87,3.83 -18.9,4.97 -12.59,2.38 -24.2,7.59 -35.55,12.42 -2.92,1.24 -5.99,1.27 -9.51,2.67 -12.45,4.93 -28.1,13.89 -39.65,20.2l-15.4 8.69c-7.54,5.33 -4.47,2.19 -14.09,9.87 -4.72,3.77 -9.58,6.56 -13.73,10.22 -5.08,4.48 -2.07,3.24 -8.96,8.98 -1.13,0.94 -2.08,1.86 -3.15,2.87 -2.28,2.14 -10.51,9.98 -11.52,12.43 -1.08,4.37 -2.44,4.88 -5.31,8.65 -1.65,2.16 -3.56,4.56 -5.18,6.72 -3.6,-1.69 -6.39,-4.38 -8.16,-9.31 -4.98,-8.47 -14.72,-17.35 -21.32,-24.56 -6.83,-7.45 -39.75,-32.17 -51.64,-37.25 -2.37,-1.01 -2.08,-0.5 -4.31,-1.74 -5.04,-2.81 -10,-5.63 -15.67,-8.29l-26.79 -11.38c-10.39,-3.68 -8.65,-4.65 -13.82,-6.64l-27.92 -7.97c-12.24,-2.85 -43.54,-6.16 -46.4,-6.82 -16.31,-3.78 -45.9,0.07 -64.09,-1.52l0 2.13c-11.53,0.65 -27.46,1.73 -38.39,3.61 -5.4,0.93 -14.74,0.67 -19.02,1.96 -6.59,2 -10.62,2.83 -19.63,2.31z"/>
 </g>
</svg>
