<svg width="26" height="26" viewBox="0 0 26 26" fill="none" xmlns="http://www.w3.org/2000/svg">
<path d="M13 0.5C6.125 0.5 0.5 6.125 0.5 13C0.5 19.875 6.125 25.5 13 25.5C19.875 25.5 25.5 19.875 25.5 13C25.5 6.125 19.875 0.5 13 0.5ZM18.25 10.875L12.25 16.875C11.75 17.375 11 17.375 10.5 16.875L7.75 14.125C7.25 13.625 7.25 12.875 7.75 12.375C8.25 11.875 9 11.875 9.5 12.375L11.375 14.25L16.5 9.125C17 8.625 17.75 8.625 18.25 9.125C18.75 9.625 18.75 10.375 18.25 10.875Z" fill="#664EFF" fill-opacity="0.8"/>
</svg>
