<?xml version="1.0" encoding="UTF-8"?>
<!DOCTYPE svg PUBLIC "-//W3C//DTD SVG 1.1//EN" "http://www.w3.org/Graphics/SVG/1.1/DTD/svg11.dtd">
<!-- Creator: CorelDRAW 2021 (64-Bit) -->
<svg xmlns="http://www.w3.org/2000/svg" xml:space="preserve" width="6.4in" height="3.6in" version="1.1" style="shape-rendering:geometricPrecision; text-rendering:geometricPrecision; image-rendering:optimizeQuality; fill-rule:evenodd; clip-rule:evenodd"
viewBox="0 0 6400 3600"
 xmlns:xlink="http://www.w3.org/1999/xlink"
 xmlns:xodm="http://www.corel.com/coreldraw/odm/2003">
 <defs>
  <style type="text/css">
   <![CDATA[
    .fil0 {fill:black}
   ]]>
  </style>
 </defs>
 <g id="Layer_x0020_1">
  <metadata id="CorelCorpID_0Corel-Layer"/>
  <g id="_1606338165856">
   <path class="fil0" d="M482.39 1078.79c0,7.77 5.89,12.89 11.17,12.89l195.95 0 0 -83.37 -173.61 0c-1.46,6.26 -33.52,62.26 -33.52,70.47z"/>
   <path class="fil0" d="M715.29 1091.69l195.95 0c5.28,0 11.17,-5.13 11.17,-12.89 0,-8.29 -32.01,-63.98 -33.52,-70.47l-173.61 0 0 83.37z"/>
   <path class="fil0" d="M715.29 983.39l159.85 0c-0.32,-3.89 -18.02,-37.88 -21.19,-44.13 -2,-3.94 -3.67,-6.42 -5.74,-10.59 -5.83,-11.7 -11.23,-28.65 -21.2,-28.65l-111.73 0 0 83.37z"/>
   <path class="fil0" d="M529.65 983.39l159.85 0 0 -83.37 -111.72 0c-9.94,0 -15.09,16.42 -20.91,28.07 -4.66,9.33 -26.77,49.94 -27.22,55.29z"/>
   <path class="fil0" d="M655.13 762.52l0 5.16c0,22.87 21.82,44.69 44.69,44.69l5.16 0c22.87,0 44.69,-21.82 44.69,-44.69l0 -5.16c0,-22.87 -21.82,-44.69 -44.69,-44.69l-5.16 0c-22.87,0 -44.69,21.82 -44.69,44.69z"/>
   <path class="fil0" d="M740.22 713.53c0,9.51 11.72,20.78 23.86,8.39 5.7,-5.83 22.55,-19.52 22.55,-27.3 0,-10.39 -12.09,-20.41 -23.86,-8.39 -5.7,5.83 -22.55,19.52 -22.55,27.3z"/>
   <path class="fil0" d="M618.18 836.43c0,9.15 12.08,19.55 23.86,7.53 5.7,-5.83 22.55,-19.52 22.55,-27.3 0,-9.51 -11.72,-20.78 -23.86,-8.39l-16.76 16.76c-3.2,3.15 -5.8,5.3 -5.8,11.39z"/>
   <path class="fil0" d="M740.22 815.8c0,5.78 2.31,7.98 5.36,10.97 3.1,3.03 5.53,5.52 8.6,8.59 2.93,2.93 5.26,5.21 8.16,8.17 15.29,15.55 33.38,-3.9 18.92,-18.06 -5.83,-5.7 -19.52,-22.55 -27.3,-22.55 -7.29,0 -13.75,5.92 -13.75,12.89z"/>
   <path class="fil0" d="M618.18 693.76c0,7.8 6.57,12.17 13.54,19.12 6.06,6.06 12.37,14.4 19.12,14.4 9.51,0 20.78,-11.72 8.39,-23.86 -2.95,-2.89 -5.24,-5.23 -8.17,-8.16 -6.06,-6.06 -12.37,-14.39 -19.13,-14.39 -7.49,0 -13.75,5.56 -13.75,12.89z"/>
   <path class="fil0" d="M689.51 835.57l0 31.8c0,14.84 25.78,14.84 25.78,0l0 -31.8c0,-14.84 -25.78,-14.84 -25.78,0z"/>
   <path class="fil0" d="M689.51 662.83l0 31.8c0,14.84 25.78,14.84 25.78,0l0 -31.8c0,-14.84 -25.78,-14.84 -25.78,0z"/>
   <path class="fil0" d="M588.96 763.38c0,8.35 4.19,14.61 11.17,14.61l31.8 0c14.84,0 14.84,-25.78 0,-25.78l-31.8 0c-5.27,0 -11.17,5.91 -11.17,11.17z"/>
   <path class="fil0" d="M761.7 763.38c0,8.35 4.19,14.61 11.17,14.61l31.8 0c14.84,0 14.84,-25.78 0,-25.78l-31.8 0c-5.27,0 -11.17,5.91 -11.17,11.17z"/>
  </g>
 </g>
</svg>
