<?xml version="1.0" encoding="UTF-8"?>
<!DOCTYPE svg PUBLIC "-//W3C//DTD SVG 1.1//EN" "http://www.w3.org/Graphics/SVG/1.1/DTD/svg11.dtd">
<!-- Creator: CorelDRAW 2021 (64-Bit) -->
<svg xmlns="http://www.w3.org/2000/svg" xml:space="preserve" width="2in" height="2in" version="1.1" style="shape-rendering:geometricPrecision; text-rendering:geometricPrecision; image-rendering:optimizeQuality; fill-rule:evenodd; clip-rule:evenodd"
viewBox="0 0 2000 2000"
 xmlns:xlink="http://www.w3.org/1999/xlink"
 xmlns:xodm="http://www.corel.com/coreldraw/odm/2003">
 <defs>
  <style type="text/css">
   <![CDATA[
    .fil0 {fill:black}
   ]]>
  </style>
 </defs>
 <g id="Layer_x0020_1">
  <metadata id="CorelCorpID_0Corel-Layer"/>
  <path class="fil0" d="M874.03 713.35c1.16,-6.17 6.33,-11.05 10.32,-16.15l12.32 -13.24c3.32,-2.83 5.15,-5.84 10.44,-7.76 6.19,-3.61 5.17,-4.62 13.69,-9.48 5.66,-3.22 7.52,-5.16 14.33,-7.96 0.19,-0.32 0.36,-0.74 0.53,-1l3 -3.05c2.85,-1.35 10.14,-4.09 14.73,-4.07 1.78,0.08 11.35,-2.24 14.36,-2.98 15.35,-3.78 33.78,-3.82 49.62,-2.56l29.89 5.69 23.54 10.24c12.61,1.34 52.28,37.99 55.59,51.46 0.1,3.73 2.44,5.27 5.36,10.92 5.9,11.43 11.09,22.85 14.08,35.67l3.52 29.67c0.38,22.94 -2.93,42.59 -11.69,63.07l-5.67 11.22c-10.72,22.83 -29.95,41.49 -50.74,55.33l-18.34 11.24c-1.41,0.72 -0.19,0.23 -2.19,0.8 -4.16,1.19 -9.66,2.29 -13.43,4.02 -2.82,1.3 -1.76,1.63 -5.71,2.41 -19.19,3.83 -16.32,2.74 -35.31,5.24 -9.02,1.19 -21.3,-1.02 -30.33,-1.73 -8.43,-0.67 -40.68,-11.73 -46.04,-15.35l-7.62 -5.1c-2.4,-1.69 -1.79,-1.66 -4.9,-3.47l-8.87 -6.1c-3.9,-0.77 -1.57,0.36 -4.94,-2.4 -1.25,-1.02 -1.6,-1.55 -2.75,-2.56 -3.22,-2.86 -3.3,-2.11 -5.54,-6.37l-0.01 -0.75c-3.43,-1.08 -0.91,0.91 -4.36,-2.24l-6.35 -7.39c-1.8,-2.24 -7.18,-8.03 -7.37,-11.74 -1.02,-2.26 -2.98,-6.15 -4.49,-8.28 -5.5,-7.85 -5.44,-8.58 -9.81,-17.69l-8.47 -31.32c-0.13,-2.21 0.07,-4.98 -0.33,-7.1 -0.88,-4.67 -0.19,1.26 -1.47,-4.73 -2.22,-10.33 -1.37,-27.09 0.63,-36.51 1.02,-4.79 0.49,-6.91 2.21,-11.5 2.05,-5.5 1.23,-3.45 2.49,-10.24l16.09 -36.16zm491.42 -505.31c-3.03,-9.24 -10.76,-12.23 -15.87,-17.85l-4.09 -0.36c-2.63,-0.97 -1.7,-1.13 -5.01,-2.42 -10.54,-4.11 -12.79,-3.74 -24.72,-3.74l-267.89 -0.02c-1.09,-6.25 -2.1,-7.05 -5.28,-11.72 -0.12,-0.18 -0.29,-0.44 -0.42,-0.62 -0.13,-0.18 -0.31,-0.43 -0.43,-0.61 -0.13,-0.17 -0.32,-0.42 -0.45,-0.59l-9.07 -8.85c-0.23,-0.21 -0.87,-0.86 -1.1,-1.07l-13.39 -7.58c-7.4,-3.54 -24.59,-3.24 -32,0.24 -10.46,4.91 -15.03,5.66 -23.78,16.65 -5.44,6.83 -9.5,11.53 -10.65,23.52 -1.64,17.15 -0.28,219.73 -0.28,242.13 0,35.97 1.5,106.96 -0.19,138.5l-8.89 4.52c-0.22,0.1 -0.5,0.22 -0.72,0.31l-3.09 1.26c-4.86,2.38 0.47,1.56 -6.7,2.37l-44.09 15.15c-5.48,1.85 -6.91,1.67 -11.31,4.28l-81.44 30.35c-3.53,1.33 -2.57,1.69 -6.66,2.83 -4.7,1.32 -4.28,1.52 -7.84,2.8l-63.59 24.28c-11.32,3.76 -23.91,9.64 -34.98,12.94 -5.37,1.6 -9.02,4.26 -14.04,5.98l-15.15 4.33c-14.89,5.08 -28.03,11.49 -42.98,16.43l-13.81 5.33c-6.05,2.07 -9.04,3.11 -14.94,5.23 -2.66,0.95 -4.44,1.69 -7.07,2.56 -4.21,1.41 -3.04,1.62 -6.56,2.86 -5.46,1.92 -10.01,3.1 -14.78,5.37l-21 7.88c-9.69,2.85 -18.74,7.79 -28.68,10.56l-42.8 17.43c-0.22,0.11 -0.48,0.28 -0.69,0.4 -4.28,2.37 -7.48,1.9 -12.13,3.75l-150.81 56.34c-4.81,2.3 -9.93,3.35 -14.55,4.84 -5.46,1.76 -13.69,6.67 -20.59,8.83 -3.16,0.99 -4.9,0.88 -7.66,2.03l-56.94 21.64c-13.72,5.97 -27.48,9.75 -36.31,23 -3.13,4.7 -4.36,7.51 -6,13.36 -2.37,8.46 -3.06,7.02 -3.09,16.87 -0.06,18.41 -1.43,106.52 0.56,117.54l559.03 -0.01c17.85,-0.06 32.8,4.95 43.87,16.96 3.76,4.09 6.17,5.84 9.14,10.99 10.92,18.91 8.52,44.83 -3.81,60.93 -2.81,3.68 -6.47,7.06 -10.15,10 -13.92,11.17 -31.44,12.09 -48.62,12.09l-475.73 -0.03c-5.39,0.64 -2.15,-0.2 -3.81,1.37 -2.43,2.73 -1.01,556.31 -1.03,651.49 -0,14.99 0.24,22.92 7.61,34.44 2.23,3.48 3.68,3.5 6.32,7.32 13.88,20.02 46.13,16.44 69.52,16.44 24.56,0 95.29,1.57 114.4,-0.4 1.67,-21.35 0.18,-74.41 0.18,-99.22l0 -302.62c0,-41.32 -2.69,-68.81 5.14,-106.39 3.08,-14.77 11.97,-31.03 20.15,-43.66 6.17,-9.53 14.45,-19.41 23.08,-26.74l14.5 -12.06c0.17,-0.14 0.43,-0.33 0.6,-0.47 5.65,-4.68 8.93,-7.87 15.95,-10.18 2.49,-0.82 0.98,-0.32 2.43,-0.99 2.01,-0.92 2.18,-1.03 4.16,-2.4l12.22 -5.3c23.44,-6.48 37.24,-8.06 63.28,-7.03 8.1,0.32 14.98,2.61 20.79,3.19 7.5,0.63 8.41,1.76 14.96,3.43 5.79,1.47 17.21,7.16 22.86,9.93 3.55,1.74 2.41,1.6 5.37,3.12l17 11.61c7.32,4.95 1.36,0.16 6.18,5.37 4.54,4.91 13.64,11.78 15.29,17.71 5.77,3.59 20.39,31.85 24.55,41.18 2.2,4.92 8.06,26.78 7.82,32.61 7.54,7.8 4.11,44.89 4.11,58.39l0 307.93c0,16.89 -1.83,115.15 1.02,123.02l127.19 0.09c2.08,-9.48 0.64,-135.15 0.64,-156.03l0 -312.18c0,-24.48 -1.2,-53.13 0.82,-76.43 1.87,-21.59 4.55,-34.77 13.59,-54.31 0.13,-0.28 1.72,-3.78 1.72,-3.79 2.18,-3.34 -0.02,-1.32 3.31,-2.95 2.58,-9.2 8.78,-14.31 12.07,-19.88 3.06,-5.17 0.8,-3.8 5.73,-7.87l17.57 -16.57c1.66,-1.94 1.13,-1.88 2.89,-3.39l22.11 -15.05c0.51,-0.35 0.94,-0.76 1.81,-1.22l2.95 -1.22c0.24,-0.1 0.53,-0.22 0.76,-0.32l21.22 -8.46c7.47,-2.37 14.65,-3.65 22.79,-4 6.48,-0.28 7.14,-1.41 11.7,-1.89 15.39,-1.62 33.61,1.16 48.57,5.26l19.33 6.93c4.91,1.22 9.22,4.04 14.02,6.39 10.38,5.09 33.52,23.89 41.28,34.2l16.62 23.79c3.71,7.73 3.66,4.78 4.44,8.05 3.3,1.62 3.09,1.38 4.78,6.18 5.13,14.49 8.54,21.39 10.13,38.16 0.52,5.51 1.74,10.61 2.08,16.21 1.47,24.31 0.18,52.74 0.18,77.48l0 461.75c6.91,1.46 121.98,1.42 131.73,0.22l-0 -461.97c0.03,-24.78 1.78,-17.79 2.69,-29.71 0.67,-8.79 1.8,-8.49 3.08,-14.06 1.06,-4.6 0.03,-8.02 5.47,-12.86 1.62,-4.68 6.33,-15.17 9.17,-20.55 1.57,-2.98 4.44,-6.76 6.19,-9.59 15.01,-24.24 26.87,-32.98 51.48,-49.46 2.62,-1.76 3,-1.35 5.78,-2.69 12.48,-5.96 8.86,-3.63 16.82,-6.74 2.59,-1.01 3.65,-1.41 6.54,-2.1 29.26,-7.05 15.78,-7.1 56.17,-6.47 8.13,0.13 30.91,4.37 38.51,8.43 4.38,2.34 8.94,2.25 21.3,9.45 3.17,1.85 7.18,3.54 10.42,5.67 2.47,1.63 1.53,1.3 3.99,3.34 10.2,8.48 17.89,12.42 29,26.25 14.89,18.55 19.86,30.6 27.82,51.76 1.57,4.18 1.7,9.22 2.81,13.28 6.32,23.09 3.22,92.31 3.22,122.07l0 313.24c0,19.59 -1.3,44.13 0.18,63.11l156.63 0.76c1.01,-1.1 0.26,-0.79 1.86,-1.82 2.84,-1.85 5.47,-1.61 8.46,-3.13 6.5,-3.3 12.97,-6.99 17.11,-12.7l7.85 -8.82c0.67,-4.65 -0.22,-0.32 1.78,-3.43 0.35,-8.63 3.17,-10.85 3.34,-20.12 0.13,-7.05 0,-14.22 0,-21.28l0 -298.37c0,-29.52 1.55,-337.09 -1,-339.68 -1.26,-0.79 0.07,-0.33 -2.25,-0.8l-6.09 -0.24c-137.06,1.13 -277.89,0.04 -415.22,0.04 -21.94,0 -50.01,1.54 -71.21,-0.07 -8.11,-0.61 -20.91,-4.4 -27,-8.09 -6.68,-4.05 -15.6,-10.3 -17.61,-18.54l-1.73 -3.59c-13.37,-25.09 -6.23,-53.72 14.43,-70.82l9.09 -5.76c0.22,-0.11 0.48,-0.26 0.7,-0.37 4.28,-2.26 4.64,-2.01 9.68,-2.93 18.72,-3.41 22.34,-2.33 42.23,-2.33 26.91,0 526.78,1.37 535.64,-0.49l0.31 -123.96c-0.19,-0.31 -0.43,-0.68 -0.57,-0.94l-1.3 -2.57c-0.3,-0.69 -0.56,-1.48 -0.81,-2.28 -3.41,-10.81 -0.61,-5.73 -8.3,-16.71l-1.37 -1.93c-5.83,-8.6 -5.33,-4.13 -9.99,-11.25 -2.67,-0.59 -4.72,-3.83 -13.19,-6.85 -2.2,-0.79 -5.98,-2.07 -7.83,-2.95 -12.43,-5.93 -2.1,-0.18 -16.34,-5.9 -1.58,-0.63 -2.58,-0.85 -3.95,-1.42 -1.8,-0.75 -0.99,-0.68 -3.63,-1.61l-15.78 -5.55c-10.93,-1.05 -28.48,-9.53 -39.79,-13.6l-9.92 -3.63c-4.52,-1.41 -4.94,-0.16 -5.44,-4.33l-125.56 -46.33c-6.11,-0.55 -12.29,-3.28 -16.75,-5.38 -1.85,-0.87 -1.69,-0.52 -3.44,-1.04 -1.22,-0.36 -1.78,-0.31 -2.92,-1.15 -2.96,-2.17 -0.91,-0.72 -2.32,-2.93 -4.49,0.4 -10.92,-3.19 -15.02,-5.11 -1.49,-0.7 -2.47,-0.93 -3.81,-1.44 -3.94,-1.49 -0.79,-0.3 -3.65,-1.67l-48.28 -17.6c-4.85,-1.55 -4.14,-1.45 -7.67,-2.95l-108.57 -39.38c-1.92,-0.91 -2.27,-1.11 -4.13,-2.06 -8.83,-4.49 -12.55,-4.04 -22.95,-8.81 -3.26,-1.5 -5.34,-2.44 -8.31,-3.41l-267.11 -100.27c-5.86,-2.13 -18.19,-5.58 -19.94,-9.17 -1.76,-4.76 -1.15,-108.55 -0.63,-122.17 9.59,-1.45 232.5,-0.45 260.15,-0.45 6.39,0 12.78,0.03 19.17,-0.07 11.67,-0.17 5.35,-2.83 15.87,-3.53 1.67,-4.91 3.07,-4.62 7.97,-8.03 3.57,-2.48 6.58,-4.57 8.95,-8.02 15.8,-23.01 9.79,-59.89 9.79,-92.41l0 -101.93c-0.04,-8.71 -0.47,-14.9 -3.41,-22.6 -1.56,-4.09 -1.59,-1.3 -3.35,-4.89zm-373.47 633.17c1.74,1.87 -0.4,0.44 1.94,1.7 5.48,2.94 23.07,-1.69 25,-2.81 16.69,-9.66 17.28,-9.6 27.83,-27.17 0.36,-4.38 7.61,-21.03 1.41,-36.06l-0.61 -1.52c-2.59,-6.62 -8.51,-15.05 -13.89,-19.83 -14.97,-13.29 -37.16,-17.14 -54.95,-6.53l-5.54 2.81c-5.8,2.69 -10.41,8.78 -16.28,17.85l-5.51 14.9c-1.67,8.71 -0.09,19.03 3.18,26.59l3.37 6.05c5.59,12.27 19.98,22.84 34.06,24.02zm395.1 523.26l-3.22 6.43c-0.64,2.21 -0.98,3.28 -1.2,6.08l-0.12 470.42c1.33,2.48 -1.33,1.41 4.25,1.95l94.11 0.08c2.04,-9.4 0.62,-230.39 0.62,-246.25l0 -215.55c0.03,-25.18 -3.12,-19.61 -3.61,-28.37 -0.41,-6.33 -12.74,-17.04 -17.37,-19.86 -10.68,-6.49 -14.66,-7.82 -31.21,-7.53 -8.34,0.15 -21.96,5.3 -27.81,10.93 -3.63,3.5 -6.25,5.83 -9.01,10.16 -2.57,4.02 -5,7.28 -5.43,11.52zm-867.2 484.96l94.79 0.07c2.57,-5.5 1.1,-382.65 1.1,-423.66 0,-19.43 2.42,-49.85 -4.74,-66.43 -8.97,-20.78 -37.47,-32.79 -58.65,-24.69 -4.11,1.57 -8.54,3.41 -12.14,5.78 -28.3,18.63 -20.98,53.26 -20.98,85.35l0 282.45c0,19.23 -1.33,132.08 0.63,141.14zm435.44 -559.71c-0.02,8.09 -2.74,7.63 -3.7,13.95 -1.36,9 -0.47,537.91 -0.47,545.09l95.19 0.14 0 -461.28c0,-25.27 0.6,-51.28 -0.06,-76.46 -0.08,-3.12 -0.17,-6.33 -0.85,-9.38 -0.41,-1.81 -0.45,-1.64 -1.04,-3.24 -5.77,-15.7 -12.17,-21.07 -24.81,-27.71l-1.41 -0.72c-5.34,-2.66 -3.77,-1.12 -4.9,-4.59 -6.46,-0.52 -9.62,-2.7 -18.2,-2.06 -17.4,1.3 -37.84,17.47 -39.76,26.26z"/>
 </g>
</svg>
