<?xml version="1.0" encoding="UTF-8"?>
<!DOCTYPE svg PUBLIC "-//W3C//DTD SVG 1.1//EN" "http://www.w3.org/Graphics/SVG/1.1/DTD/svg11.dtd">
<!-- Creator: CorelDRAW 2021 (64-Bit) -->
<svg xmlns="http://www.w3.org/2000/svg" xml:space="preserve" width="2in" height="2in" version="1.1" style="shape-rendering:geometricPrecision; text-rendering:geometricPrecision; image-rendering:optimizeQuality; fill-rule:evenodd; clip-rule:evenodd"
viewBox="0 0 2000 2000"
 xmlns:xlink="http://www.w3.org/1999/xlink"
 xmlns:xodm="http://www.corel.com/coreldraw/odm/2003">
 <defs>
  <style type="text/css">
   <![CDATA[
    .str0 {stroke:black;stroke-width:6.94;stroke-linecap:round;stroke-linejoin:round;stroke-miterlimit:2.61313}
    .fil0 {fill:black}
   ]]>
  </style>
 </defs>
 <g id="Layer_x0020_1">
  <metadata id="CorelCorpID_0Corel-Layer"/>
  <path class="fil0 str0" d="M596.13 1764.3l808.45 0 0 -56.64c-3.55,-69.83 -50.04,-117.11 -125.09,-126.96l-558.26 0c-73.4,3.93 -119.85,63.15 -124.88,126.62l-0.22 56.99zm896.48 -1089.72l5.97 0c3.48,14.94 12.03,31.73 17.46,45.24l125.39 301.54c3.8,9.4 7.22,14.03 9.41,23.43l-310.5 0c2.09,-8.99 5.4,-13.66 8.56,-21.3l143.71 -348.91zm-991.2 0l42.81 91.53c14.05,31.34 25.05,61.27 38.63,92.73l76.78 185.94 -310.5 0 75.9 -183.84c8.81,-20.98 72.11,-168.09 76.37,-186.36zm453.8 -247.8c-34.79,8.11 -72.5,45.81 -80.61,80.61l-549.33 0 0 89.56 110.46 0c-6.61,28.37 -200.03,480.37 -200.03,495.6 0,122.04 106.04,220.93 208.99,220.93 103.67,0 185.43,13.28 263.56,-64.85 35.83,-35.83 64.85,-91.48 64.85,-156.08 0,-10.46 -138.78,-342.42 -149.7,-369.78 -8.08,-20.25 -16.39,-39.47 -25.15,-61.43 -8.24,-20.67 -20.26,-43.24 -25.18,-64.39l301.54 0c8.11,34.8 45.82,72.5 80.61,80.61l0 638.9c-11.72,5.63 -37.12,9.19 -62.58,24 -18.54,10.79 -36.39,22.56 -51.7,37.86 -12.41,12.41 -28.38,33.4 -37.01,49.57 -19.63,36.77 -17.23,48.82 -24.85,64.72l441.86 0c-12.13,-25.29 -11.56,-63.98 -61.86,-114.29 -48.54,-48.53 -88.35,-49.41 -114.28,-61.86l0 -638.9c34.79,-8.11 72.5,-45.81 80.61,-80.61l301.54 0c-6.61,28.37 -200.03,480.37 -200.03,495.6 0,122.04 106.04,220.93 208.98,220.93 103.67,0 185.43,13.28 263.56,-64.85 35.83,-35.83 64.85,-91.48 64.85,-156.08 0,-8.79 -19.75,-53.59 -23.81,-62.78 -37.06,-83.79 -91.12,-219.84 -125.9,-307 -9.59,-24.02 -46.14,-107.84 -50.33,-125.82l110.46 0 0 -89.56 -549.33 0c-2.25,-26.99 -44.85,-72.28 -80.61,-80.61l0 -191.07 -89.57 0 0 191.07z"/>
 </g>
</svg>
