<?xml version="1.0" encoding="UTF-8"?>
<!DOCTYPE svg PUBLIC "-//W3C//DTD SVG 1.1//EN" "http://www.w3.org/Graphics/SVG/1.1/DTD/svg11.dtd">
<!-- Creator: CorelDRAW 2021 (64-Bit) -->
<svg xmlns="http://www.w3.org/2000/svg" xml:space="preserve" width="2in" height="2in" version="1.1" style="shape-rendering:geometricPrecision; text-rendering:geometricPrecision; image-rendering:optimizeQuality; fill-rule:evenodd; clip-rule:evenodd"
viewBox="0 0 2000 2000"
 xmlns:xlink="http://www.w3.org/1999/xlink"
 xmlns:xodm="http://www.corel.com/coreldraw/odm/2003">
 <defs>
  <style type="text/css">
   <![CDATA[
    .fil0 {fill:black}
   ]]>
  </style>
 </defs>
 <g id="Layer_x0020_1">
  <metadata id="CorelCorpID_0Corel-Layer"/>
  <path class="fil0" d="M166.97 439.84l0 770.02c0,16.34 8.16,24.5 24.5,24.5l871.53 0c14.38,0 21,-19.24 21,-35l0 -745.52c0,-44.47 -30.23,-84 -73.5,-84l-766.52 0c-24.65,0 -40,7.59 -53.46,20.04 -11.38,10.53 -23.54,29.23 -23.54,49.96zm-63 976.05c2.82,15.84 10.26,24.98 28,24.98l276.51 0c15.28,0 7.19,-23.42 31.44,-70.07 6.16,-11.86 13.35,-21.46 20.99,-31.5 8.3,-10.92 17.33,-17.11 24.57,-27.93l-350.3 -0.3c-14.1,0.27 -11.24,-1.56 -20.09,4.41 -4.14,2.79 -11.11,10.46 -11.11,16.89l0 83.52zm1351.04 133.48c-100.78,0 -105.67,-157.51 3.5,-157.51 98.57,0 100.79,157.51 -3.5,157.51zm-3.5 80.5c124.24,0 194.37,-120 151.63,-221.63 -40.13,-95.44 -170.99,-137.96 -262.79,-47.04 -26.5,26.26 -44.51,64.13 -43.94,110.65 1.04,85.87 70.07,158.01 155.11,158.01zm-826.03 -80.5c-105.84,0 -107.33,-157.51 0,-157.51 99.87,0 99.73,157.51 0,157.51zm-161 -98c0,35.53 -1.85,58.53 16.29,92.21 50.07,92.94 169.74,110.34 236.61,55.69 89.14,-72.86 87.46,-184.96 1.86,-255.65 -57.39,-47.4 -151.39,-42.8 -206.7,12.31 -22.74,22.65 -48.06,62.98 -48.06,95.44zm1148.04 -556.52l-311.51 0c-12.79,0 -28,-9.66 -28,-21l0 -178.5c0,-20.86 14.13,-28 35,-28l171.5 0c36.44,0 57.83,49.96 88.99,93.02 13.57,18.75 72.02,97.59 72.02,109.98 0,13.71 -13.02,24.5 -28,24.5zm283.51 437.51l0 80.94c-3.49,36.15 -22.45,27.56 -108.5,27.56 -42,0 -84,0 -126.01,0 -4.14,-49.77 -31.96,-89.42 -63.84,-121.66 -75.89,-76.72 -208.69,-75.77 -285.36,-0.04 -36.62,36.17 -50.35,63.97 -63.81,121.7l-420.01 0c0,-60.84 -46.35,-99.4 -66.5,-129.5l392.01 0 0 -728.02c0,-31.63 24.37,-56 56,-56l234.51 0c62.13,0 109.72,26.65 144.1,55.41 7.03,5.88 15.85,18.17 22.43,26.57 8.3,10.61 12.85,17.24 20.39,28.61 36.32,54.82 140.01,202.21 157.31,238.2 10.16,21.13 19.79,48.56 19.79,78.22l0 357.01c31.57,0 87.5,-8.33 87.5,21z"/>
 </g>
</svg>
