<svg width="30" height="30" viewBox="0 0 30 30" fill="none" xmlns="http://www.w3.org/2000/svg">
<path d="M27.5 6.06211V20.9246C27.5 22.1371 26.5125 23.2496 25.3 23.3996L24.9125 23.4496C22.8625 23.7246 19.975 24.5746 17.65 25.5496C16.8375 25.8871 15.9375 25.2746 15.9375 24.3871V6.99961C15.9375 6.53711 16.2 6.11211 16.6125 5.88711C18.9 4.64961 22.3625 3.54961 24.7125 3.34961H24.7875C26.2875 3.34961 27.5 4.56211 27.5 6.06211Z" fill="#FD3B5E"/>
<path d="M13.3875 5.88711C11.1 4.64961 7.63749 3.54961 5.28749 3.34961H5.19999C3.69999 3.34961 2.48749 4.56211 2.48749 6.06211V20.9246C2.48749 22.1371 3.47499 23.2496 4.68749 23.3996L5.07499 23.4496C7.12499 23.7246 10.0125 24.5746 12.3375 25.5496C13.15 25.8871 14.05 25.2746 14.05 24.3871V6.99961C14.05 6.52461 13.8 6.11211 13.3875 5.88711ZM6.24999 9.67461H9.06249C9.57499 9.67461 9.99999 10.0996 9.99999 10.6121C9.99999 11.1371 9.57499 11.5496 9.06249 11.5496H6.24999C5.73749 11.5496 5.31249 11.1371 5.31249 10.6121C5.31249 10.0996 5.73749 9.67461 6.24999 9.67461ZM9.99999 15.2996H6.24999C5.73749 15.2996 5.31249 14.8871 5.31249 14.3621C5.31249 13.8496 5.73749 13.4246 6.24999 13.4246H9.99999C10.5125 13.4246 10.9375 13.8496 10.9375 14.3621C10.9375 14.8871 10.5125 15.2996 9.99999 15.2996Z" fill="#FD3B5E"/>
</svg>
