<svg width="60" height="60" viewBox="0 0 60 60" fill="none" xmlns="http://www.w3.org/2000/svg">
<path d="M53.0814 60C53.081 60 53.0803 60 53.0797 60L30.7805 59.9574H6.91819C6.4474 59.9574 6.06592 59.5759 6.06592 59.1051V20.7627C6.06592 20.2919 6.4474 19.9105 6.91819 19.9105H18.8197V0.852273C18.8197 0.381477 19.2011 0 19.6719 0H53.081C53.5518 0 53.9333 0.381477 53.9333 0.852273V59.1477C53.9333 59.3741 53.8433 59.5909 53.6831 59.7511C53.5235 59.9103 53.307 60 53.0814 60ZM31.6341 58.2545L52.2288 58.2937V1.70455H20.5242V19.9105H30.7818C31.2526 19.9105 31.6341 20.2919 31.6341 20.7627V58.2545ZM7.77046 58.2528H29.9296V21.615H7.77046V58.2528ZM27.2984 52.7161H20.5556C20.0848 52.7161 19.7033 52.3347 19.7033 51.8639V47.9178C19.7033 47.447 20.0848 47.0656 20.5556 47.0656H27.2984C27.7692 47.0656 28.1507 47.447 28.1507 47.9178V51.8639C28.1507 52.3347 27.7692 52.7161 27.2984 52.7161ZM21.4078 51.0116H26.4461V48.7701H21.4078V51.0116ZM17.1448 52.7161H10.4019C9.93115 52.7161 9.54967 52.3347 9.54967 51.8639V47.9178C9.54967 47.447 9.93115 47.0656 10.4019 47.0656H17.1448C17.6156 47.0656 17.9971 47.447 17.9971 47.9178V51.8639C17.9971 52.3347 17.6156 52.7161 17.1448 52.7161ZM11.2542 51.0116H16.2925V48.7701H11.2542V51.0116ZM47.2886 52.2784H44.0285C43.5577 52.2784 43.1763 51.8969 43.1763 51.4261V47.8834C43.1763 47.4126 43.5577 47.0311 44.0285 47.0311H47.2886C47.7594 47.0311 48.1409 47.4126 48.1409 47.8834V51.4261C48.1409 51.8969 47.7594 52.2784 47.2886 52.2784ZM44.8811 50.5739H46.4367V48.7357H44.8811V50.5739ZM37.8867 52.2784H34.6266C34.1558 52.2784 33.7743 51.8969 33.7743 51.4261V47.8834C33.7743 47.4126 34.1558 47.0311 34.6266 47.0311H37.8867C38.3575 47.0311 38.739 47.4126 38.739 47.8834V51.4261C38.739 51.8969 38.3575 52.2784 37.8867 52.2784ZM35.4789 50.5739H37.0344V48.7357H35.4789V50.5739ZM27.2984 45.0058H20.5556C20.0848 45.0058 19.7033 44.6243 19.7033 44.1535V40.2075C19.7033 39.7367 20.0848 39.3552 20.5556 39.3552H27.2984C27.7692 39.3552 28.1507 39.7367 28.1507 40.2075V44.1535C28.1507 44.624 27.7692 45.0058 27.2984 45.0058ZM21.4078 43.3013H26.4461V41.0598H21.4078V43.3013ZM17.1448 45.0058H10.4019C9.93115 45.0058 9.54967 44.6243 9.54967 44.1535V40.2075C9.54967 39.7367 9.93115 39.3552 10.4019 39.3552H17.1448C17.6156 39.3552 17.9971 39.7367 17.9971 40.2075V44.1535C17.9971 44.624 17.6156 45.0058 17.1448 45.0058ZM11.2542 43.3013H16.2925V41.0598H11.2542V43.3013ZM47.2886 43.786H44.0285C43.5577 43.786 43.1763 43.4045 43.1763 42.9338V39.3914C43.1763 38.9206 43.5577 38.5391 44.0285 38.5391H47.2886C47.7594 38.5391 48.1409 38.9206 48.1409 39.3914V42.9338C48.1409 43.4045 47.7594 43.786 47.2886 43.786ZM44.8811 42.0815H46.4367V40.2436H44.8811V42.0815ZM37.8867 43.786H34.6266C34.1558 43.786 33.7743 43.4045 33.7743 42.9338V39.3914C33.7743 38.9206 34.1558 38.5391 34.6266 38.5391H37.8867C38.3575 38.5391 38.739 38.9206 38.739 39.3914V42.9338C38.739 43.4045 38.3575 43.786 37.8867 43.786ZM35.4789 42.0815H37.0344V40.2436H35.4789V42.0815ZM27.2984 37.2951H20.5556C20.0848 37.2951 19.7033 36.9136 19.7033 36.4428V32.4968C19.7033 32.026 20.0848 31.6445 20.5556 31.6445H27.2984C27.7692 31.6445 28.1507 32.026 28.1507 32.4968V36.4428C28.1507 36.9136 27.7692 37.2951 27.2984 37.2951ZM21.4078 35.5906H26.4461V33.3491H21.4078V35.5906ZM17.1448 37.2951H10.4019C9.93115 37.2951 9.54967 36.9136 9.54967 36.4428V32.4968C9.54967 32.026 9.93115 31.6445 10.4019 31.6445H17.1448C17.6156 31.6445 17.9971 32.026 17.9971 32.4968V36.4428C17.9971 36.9136 17.6156 37.2951 17.1448 37.2951ZM11.2542 35.5906H16.2925V33.3491H11.2542V35.5906ZM47.2886 35.2936H44.0285C43.5577 35.2936 43.1763 34.9122 43.1763 34.4414V30.899C43.1763 30.4282 43.5577 30.0467 44.0285 30.0467H47.2886C47.7594 30.0467 48.1409 30.4282 48.1409 30.899V34.4417C48.1409 34.9122 47.7594 35.2936 47.2886 35.2936ZM44.8811 33.5891H46.4367V31.7509H44.8811V33.5891ZM37.8867 35.2936H34.6266C34.1558 35.2936 33.7743 34.9122 33.7743 34.4414V30.899C33.7743 30.4282 34.1558 30.0467 34.6266 30.0467H37.8867C38.3575 30.0467 38.739 30.4282 38.739 30.899V34.4417C38.739 34.9122 38.3575 35.2936 37.8867 35.2936ZM35.4789 33.5891H37.0344V31.7509H35.4789V33.5891ZM27.2984 29.5844H20.5556C20.0848 29.5844 19.7033 29.203 19.7033 28.7322V24.7861C19.7033 24.3153 20.0848 23.9339 20.5556 23.9339H27.2984C27.7692 23.9339 28.1507 24.3153 28.1507 24.7861V28.7325C28.1507 29.203 27.7692 29.5844 27.2984 29.5844ZM21.4078 27.8799H26.4461V25.6381H21.4078V27.8799ZM17.1448 29.5844H10.4019C9.93115 29.5844 9.54967 29.203 9.54967 28.7322V24.7861C9.54967 24.3153 9.93115 23.9339 10.4019 23.9339H17.1448C17.6156 23.9339 17.9971 24.3153 17.9971 24.7861V28.7325C17.9971 29.203 17.6156 29.5844 17.1448 29.5844ZM11.2542 27.8799H16.2925V25.6381H11.2542V27.8799ZM47.2886 26.8012H44.0285C43.5577 26.8012 43.1763 26.4198 43.1763 25.949V22.4066C43.1763 21.9358 43.5577 21.5543 44.0285 21.5543H47.2886C47.7594 21.5543 48.1409 21.9358 48.1409 22.4066V25.949C48.1409 26.4198 47.7594 26.8012 47.2886 26.8012ZM44.8811 25.0967H46.4367V23.2589H44.8811V25.0967ZM37.8867 26.8012H34.6266C34.1558 26.8012 33.7743 26.4198 33.7743 25.949V22.4066C33.7743 21.9358 34.1558 21.5543 34.6266 21.5543H37.8867C38.3575 21.5543 38.739 21.9358 38.739 22.4066V25.949C38.739 26.4198 38.3575 26.8012 37.8867 26.8012ZM35.4789 25.0967H37.0344V23.2589H35.4789V25.0967ZM47.2886 18.3092H44.0285C43.5577 18.3092 43.1763 17.9277 43.1763 17.4569V13.9142C43.1763 13.4434 43.5577 13.0619 44.0285 13.0619H47.2886C47.7594 13.0619 48.1409 13.4434 48.1409 13.9142V17.4569C48.1409 17.9274 47.7594 18.3092 47.2886 18.3092ZM44.8811 16.6047H46.4367V14.7665H44.8811V16.6047ZM37.8867 18.3092H34.6266C34.1558 18.3092 33.7743 17.9277 33.7743 17.4569V13.9142C33.7743 13.4434 34.1558 13.0619 34.6266 13.0619H37.8867C38.3575 13.0619 38.739 13.4434 38.739 13.9142V17.4569C38.739 17.9274 38.3575 18.3092 37.8867 18.3092ZM35.4789 16.6047H37.0344V14.7665H35.4789V16.6047ZM28.4844 18.3092H25.2243C24.7535 18.3092 24.3721 17.9277 24.3721 17.4569V13.9142C24.3721 13.4434 24.7535 13.0619 25.2243 13.0619H28.4844C28.9552 13.0619 29.3367 13.4434 29.3367 13.9142V17.4569C29.3367 17.9274 28.9552 18.3092 28.4844 18.3092ZM26.0769 16.6047H27.6325V14.7665H26.0769V16.6047ZM47.2886 9.81648H44.0285C43.5577 9.81648 43.1763 9.435 43.1763 8.9642V5.42182C43.1763 4.95102 43.5577 4.56955 44.0285 4.56955H47.2886C47.7594 4.56955 48.1409 4.95102 48.1409 5.42182V8.96455C48.1409 9.435 47.7594 9.81648 47.2886 9.81648ZM44.8811 8.11193H46.4367V6.27375H44.8811V8.11193ZM37.8867 9.81648H34.6266C34.1558 9.81648 33.7743 9.435 33.7743 8.9642V5.42182C33.7743 4.95102 34.1558 4.56955 34.6266 4.56955H37.8867C38.3575 4.56955 38.739 4.95102 38.739 5.42182V8.96455C38.739 9.435 38.3575 9.81648 37.8867 9.81648ZM35.4789 8.11193H37.0344V6.27375H35.4789V8.11193ZM28.4844 9.81648H25.2243C24.7535 9.81648 24.3721 9.435 24.3721 8.9642V5.42182C24.3721 4.95102 24.7535 4.56955 25.2243 4.56955H28.4844C28.9552 4.56955 29.3367 4.95102 29.3367 5.42182V8.96455C29.3367 9.435 28.9552 9.81648 28.4844 9.81648ZM26.0769 8.11193H27.6325V6.27375H26.0769V8.11193Z" fill="#6F4CF5"/>
</svg>
