<svg width="60" height="60" viewBox="0 0 60 60" fill="none" xmlns="http://www.w3.org/2000/svg">
<g clip-path="url(#clip0_1428_826)">
<path d="M26.0001 9.58594C11.6641 9.58594 8.06264e-05 20.0899 8.06264e-05 32.9999C8.06264e-05 37.4989 1.41808 41.8559 4.10608 45.6269C3.59608 51.2049 2.24608 55.3389 0.293081 57.2929C-0.0109194 57.5969 -0.0869194 58.0609 0.105081 58.4459C0.276081 58.7889 0.625081 58.9999 1.00008 58.9999C1.04608 58.9999 1.09308 58.9969 1.14008 58.9899C1.48908 58.9409 9.57208 57.7769 15.4571 54.4049C18.7871 55.7379 22.3311 56.4139 26.0011 56.4139C40.3371 56.4139 52.0011 45.9109 52.0011 32.9999C52.0011 20.0889 40.3371 9.58594 26.0001 9.58594Z" fill="#6F4CF5"/>
<path d="M55.8938 37.042C58.5818 33.27 59.9998 28.912 59.9998 24.414C59.9998 11.503 48.3368 1 33.9998 1C25.7538 1 18.0318 4.592 13.1758 10.42C17.0208 8.614 21.3798 7.586 25.9998 7.586C41.4388 7.586 53.9998 18.986 53.9998 33C53.9998 38.506 52.0548 43.604 48.7638 47.77C53.7098 49.657 58.6168 50.37 58.8598 50.404C58.9068 50.41 58.9538 50.414 58.9998 50.414C59.3748 50.414 59.7238 50.203 59.8948 49.86C60.0868 49.475 60.0108 49.011 59.7068 48.707C57.7528 46.753 56.4028 42.619 55.8938 37.042Z" fill="#6F4CF5"/>
<path d="M26.8887 31.6543H24.3984C24.4049 31.0684 24.4505 30.5638 24.5352 30.1406C24.6263 29.7109 24.7793 29.3236 24.9941 28.9785C25.2155 28.6335 25.5085 28.2917 25.873 27.9531C26.179 27.6797 26.446 27.4193 26.6738 27.1719C26.9017 26.9245 27.0807 26.6706 27.2109 26.4102C27.3411 26.1432 27.4062 25.847 27.4062 25.5215C27.4062 25.1439 27.3477 24.8314 27.2305 24.584C27.1198 24.3301 26.9505 24.138 26.7227 24.0078C26.5013 23.8776 26.2214 23.8125 25.8828 23.8125C25.6029 23.8125 25.3424 23.8743 25.1016 23.998C24.8607 24.1152 24.6621 24.2975 24.5059 24.5449C24.3561 24.7923 24.278 25.1178 24.2715 25.5215H21.4395C21.459 24.6296 21.6641 23.8939 22.0547 23.3145C22.4518 22.7285 22.9824 22.2956 23.6465 22.0156C24.3105 21.7292 25.056 21.5859 25.8828 21.5859C26.7943 21.5859 27.5755 21.7357 28.2266 22.0352C28.8776 22.3281 29.3757 22.7611 29.7207 23.334C30.0658 23.9004 30.2383 24.5905 30.2383 25.4043C30.2383 25.9707 30.1276 26.4753 29.9062 26.918C29.6849 27.3542 29.3952 27.7611 29.0371 28.1387C28.679 28.5163 28.2852 28.9069 27.8555 29.3105C27.4844 29.6426 27.2305 29.9909 27.0938 30.3555C26.9635 30.7201 26.8952 31.153 26.8887 31.6543ZM24.1055 34.6719C24.1055 34.2552 24.2487 33.9102 24.5352 33.6367C24.8216 33.3568 25.2057 33.2168 25.6875 33.2168C26.1628 33.2168 26.5436 33.3568 26.8301 33.6367C27.123 33.9102 27.2695 34.2552 27.2695 34.6719C27.2695 35.0755 27.123 35.4173 26.8301 35.6973C26.5436 35.9772 26.1628 36.1172 25.6875 36.1172C25.2057 36.1172 24.8216 35.9772 24.5352 35.6973C24.2487 35.4173 24.1055 35.0755 24.1055 34.6719Z" fill="white"/>
</g>
<defs>
<clipPath id="clip0_1428_826">
<rect width="60" height="60" fill="white"/>
</clipPath>
</defs>
</svg>
