<svg width="30" height="30" viewBox="0 0 30 30" fill="none" xmlns="http://www.w3.org/2000/svg">
<path d="M20.2375 2.5H9.7625C5.2125 2.5 2.5 5.2125 2.5 9.7625V20.225C2.5 24.7875 5.2125 27.5 9.7625 27.5H20.225C24.775 27.5 27.4875 24.7875 27.4875 20.2375V9.7625C27.5 5.2125 24.7875 2.5 20.2375 2.5ZM12.425 16.5875C11.575 17.8625 10.4 18.9 9.025 19.5875C8.9 19.65 8.75 19.6875 8.6125 19.6875C8.2625 19.6875 7.9375 19.5 7.775 19.175C7.5375 18.7125 7.725 18.15 8.2 17.9125C9.2875 17.375 10.2125 16.55 10.875 15.55C11.1 15.2125 11.1 14.7875 10.875 14.45C10.2 13.45 9.275 12.625 8.2 12.0875C7.725 11.8625 7.5375 11.3 7.775 10.825C8 10.3625 8.5625 10.175 9.025 10.4125C10.4 11.1 11.575 12.1375 12.425 13.4125C13.075 14.375 13.075 15.625 12.425 16.5875ZM21.25 19.6875H16.25C15.7375 19.6875 15.3125 19.2625 15.3125 18.75C15.3125 18.2375 15.7375 17.8125 16.25 17.8125H21.25C21.7625 17.8125 22.1875 18.2375 22.1875 18.75C22.1875 19.2625 21.7625 19.6875 21.25 19.6875Z" fill="#FD3B5E"/>
</svg>
