<svg width="60" height="77" viewBox="0 0 60 77" fill="none" xmlns="http://www.w3.org/2000/svg">
<path d="M50 56.2641C51.2386 53.6643 51.7694 50.612 51.5093 47.5846C51.2492 44.5573 50.2129 41.7258 48.5625 39.5333C46.9121 37.3409 44.7409 35.9111 42.3885 35.4678C40.0361 35.0245 37.6354 35.5927 35.562 37.0834C33.4886 38.5742 31.8595 40.9034 30.9298 43.7065C30 46.5096 29.822 49.6284 30.4236 52.575C31.0252 55.5215 32.3724 58.1294 34.2545 59.9906C36.1366 61.8517 38.4473 62.8611 40.825 62.8608C42.7997 62.849 44.735 62.1518 46.425 60.8434L50.725 66.3833C50.9574 66.6835 51.2339 66.9217 51.5386 67.0843C51.8432 67.2468 52.17 67.3305 52.5 67.3305C52.83 67.3305 53.1568 67.2468 53.4614 67.0843C53.7661 66.9217 54.0426 66.6835 54.275 66.3833C54.5093 66.0856 54.6953 65.7314 54.8222 65.3412C54.9492 64.951 55.0145 64.5324 55.0145 64.1097C55.0145 63.687 54.9492 63.2684 54.8222 62.8782C54.6953 62.4879 54.5093 62.1338 54.275 61.8361L50 56.2641ZM45 54.4388C43.8982 55.7837 42.4345 56.534 40.9125 56.534C39.3905 56.534 37.9268 55.7837 36.825 54.4388C35.7457 53.047 35.1399 51.1648 35.1399 49.2031C35.1399 47.2413 35.7457 45.3591 36.825 43.9673C37.3614 43.2789 37.9985 42.7327 38.6999 42.3601C39.4013 41.9874 40.1532 41.7956 40.9125 41.7956C41.6718 41.7956 42.4237 41.9874 43.1251 42.3601C43.8265 42.7327 44.4636 43.2789 45 43.9673C46.0793 45.3591 46.6851 47.2413 46.6851 49.2031C46.6851 51.1648 46.0793 53.047 45 54.4388ZM47.5 9.60681H12.5C10.5109 9.60681 8.60322 10.619 7.1967 12.4206C5.79018 14.2222 5 16.6658 5 19.2137V48.0342C5 50.5821 5.79018 53.0257 7.1967 54.8273C8.60322 56.6289 10.5109 57.6411 12.5 57.6411H22.5C23.163 57.6411 23.7989 57.3037 24.2678 56.7031C24.7366 56.1026 25 55.2881 25 54.4388C25 53.5895 24.7366 52.775 24.2678 52.1744C23.7989 51.5739 23.163 51.2365 22.5 51.2365H12.5C11.837 51.2365 11.2011 50.8991 10.7322 50.2986C10.2634 49.698 10 48.8835 10 48.0342V28.8205H50V32.0228C50 32.8721 50.2634 33.6866 50.7322 34.2872C51.2011 34.8877 51.837 35.2251 52.5 35.2251C53.163 35.2251 53.7989 34.8877 54.2678 34.2872C54.7366 33.6866 55 32.8721 55 32.0228V19.2137C55 16.6658 54.2098 14.2222 52.8033 12.4206C51.3968 10.619 49.4891 9.60681 47.5 9.60681ZM50 22.4159H10V19.2137C10 18.3644 10.2634 17.5499 10.7322 16.9493C11.2011 16.3488 11.837 16.0114 12.5 16.0114H47.5C48.163 16.0114 48.7989 16.3488 49.2678 16.9493C49.7366 17.5499 50 18.3644 50 19.2137V22.4159ZM25 35.2251H17.5C16.837 35.2251 16.2011 35.5625 15.7322 36.163C15.2634 36.7636 15 37.5781 15 38.4274C15 39.2767 15.2634 40.0912 15.7322 40.6917C16.2011 41.2923 16.837 41.6297 17.5 41.6297H25C25.663 41.6297 26.2989 41.2923 26.7678 40.6917C27.2366 40.0912 27.5 39.2767 27.5 38.4274C27.5 37.5781 27.2366 36.7636 26.7678 36.163C26.2989 35.5625 25.663 35.2251 25 35.2251Z" fill="#FF5996"/>
</svg>
