<svg width="59" height="50" viewBox="0 0 59 50" fill="none" xmlns="http://www.w3.org/2000/svg">
<rect width="36.4815" height="32.8333" rx="5" fill="#0DE4E4"/>
<path d="M54.7237 19.2437C54.7237 20.4476 53.7387 21.4326 52.5348 21.4326H20.4311C19.2272 21.4326 18.2422 20.4476 18.2422 19.2437V19.2255C18.2422 15.0484 21.6167 11.6738 25.7939 11.6738H47.1538C51.3309 11.6738 54.7237 15.0666 54.7237 19.2437Z" fill="#0048E5" fill-opacity="0.8"/>
<path d="M18.2422 26.3578V35.4964C18.2422 39.6736 21.6167 43.0481 25.7939 43.0481H47.1538C51.3309 43.0481 54.7237 39.6553 54.7237 35.4782V26.3578C54.7237 25.1539 53.7387 24.1689 52.5348 24.1689H20.4311C19.2272 24.1689 18.2422 25.1539 18.2422 26.3578ZM29.1866 36.9375H25.5385C24.7906 36.9375 24.1704 36.3173 24.1704 35.5694C24.1704 34.8215 24.7906 34.2014 25.5385 34.2014H29.1866C29.9345 34.2014 30.5547 34.8215 30.5547 35.5694C30.5547 36.3173 29.9345 36.9375 29.1866 36.9375ZM41.0431 36.9375H33.7468C32.9989 36.9375 32.3788 36.3173 32.3788 35.5694C32.3788 34.8215 32.9989 34.2014 33.7468 34.2014H41.0431C41.791 34.2014 42.4112 34.8215 42.4112 35.5694C42.4112 36.3173 41.791 36.9375 41.0431 36.9375Z" fill="#0048E5" fill-opacity="0.8"/>
</svg>
