<svg width="59" height="50" viewBox="0 0 59 50" fill="none" xmlns="http://www.w3.org/2000/svg">
<rect width="36.4815" height="32.8334" rx="5" fill="#6F4CF5"/>
<path d="M54.7222 19.2438C54.7222 20.4476 53.7372 21.4326 52.5333 21.4326H20.4296C19.2257 21.4326 18.2407 20.4476 18.2407 19.2438V19.2255C18.2407 15.0484 21.6153 11.6738 25.7924 11.6738H47.1523C51.3294 11.6738 54.7222 15.0666 54.7222 19.2438Z" fill="#FF5996" fill-opacity="0.8"/>
<path d="M18.2407 26.3588V35.4974C18.2407 39.6746 21.6153 43.0491 25.7924 43.0491H47.1523C51.3294 43.0491 54.7222 39.6563 54.7222 35.4792V26.3588C54.7222 25.1549 53.7372 24.1699 52.5333 24.1699H20.4296C19.2257 24.1699 18.2407 25.1549 18.2407 26.3588ZM29.1852 36.9385H25.537C24.7891 36.9385 24.169 36.3183 24.169 35.5704C24.169 34.8225 24.7891 34.2024 25.537 34.2024H29.1852C29.933 34.2024 30.5532 34.8225 30.5532 35.5704C30.5532 36.3183 29.933 36.9385 29.1852 36.9385ZM41.0416 36.9385H33.7454C32.9975 36.9385 32.3773 36.3183 32.3773 35.5704C32.3773 34.8225 32.9975 34.2024 33.7454 34.2024H41.0416C41.7895 34.2024 42.4097 34.8225 42.4097 35.5704C42.4097 36.3183 41.7895 36.9385 41.0416 36.9385Z" fill="#FF5996" fill-opacity="0.8"/>
</svg>
