<svg width="60" height="60" viewBox="0 0 60 60" fill="none" xmlns="http://www.w3.org/2000/svg">
<path d="M45.3268 33.3371C45.3268 33.6592 45.3187 33.9794 45.3025 34.2975C44.8189 43.8409 37.1666 51.493 27.6233 51.9768C27.3053 51.993 26.9849 52.0011 26.6628 52.0011C26.3407 52.0011 26.0205 51.993 25.7023 51.9768C16.159 51.4932 8.5069 43.8409 8.02311 34.2977C8.00698 33.9796 7.99884 33.6593 7.99884 33.3373C7.99884 23.3515 15.8409 15.1975 25.7023 14.6976C26.0204 14.6814 26.3407 14.6733 26.6628 14.6733C26.9849 14.6733 27.3051 14.6816 27.6233 14.6976C30.2332 14.8299 32.701 15.4994 34.92 16.5961L40.7921 10.724C36.6952 8.15877 31.8527 6.67432 26.6628 6.67432C11.9373 6.67432 0 18.6117 0 33.3371C0 48.0626 11.9373 59.9999 26.6628 59.9999C41.3883 59.9999 53.3256 48.0626 53.3256 33.3371C53.3256 28.1471 51.8412 23.3046 49.2761 19.208L43.404 25.0799C44.6343 27.5696 45.3268 30.3722 45.3268 33.3371Z" fill="#FF5996"/>
<path d="M31.8961 36.5898L21.8974 38.1045L23.412 28.1058L31.8867 19.6309C30.2643 19.0123 28.5041 18.6726 26.6645 18.6726C18.5655 18.6726 12 25.2381 12 33.3372C12 41.4361 18.5655 48.0017 26.6645 48.0017C34.7636 48.0017 41.3291 41.4361 41.3291 33.3372C41.3291 31.4974 40.9894 29.7374 40.3708 28.1148L31.8961 36.5898Z" fill="#FF5996"/>
<path d="M57.301 5.5284L54.4728 2.70028L51.6393 5.534V0H47.6398V9.53342L27.1689 30.0043L26.6641 33.3372L29.9969 32.8323L50.4678 12.3615H60.0012V8.36213H54.4672L57.301 5.5284Z" fill="#664EFF"/>
</svg>
