<svg width="60" height="60" viewBox="0 0 60 60" fill="none" xmlns="http://www.w3.org/2000/svg">
<g clip-path="url(#clip0_1443_712)">
<path d="M59.9359 53.2393V6.63804C59.9359 2.93252 57.0034 0 53.2979 0H6.69663C2.99111 0 0.0585938 2.93252 0.0585938 6.63804V53.362C0.0585938 57.0675 2.99111 60 6.69663 60H53.4206C57.1261 60 60.0586 57.0675 59.9359 53.2393ZM54.9543 53.2393C54.9543 54.135 54.1936 54.8957 53.2979 54.8957H6.69663C5.80093 54.8957 5.04019 54.135 5.04019 53.2393V6.63804C5.04019 5.74233 5.80093 4.9816 6.69663 4.9816H53.2856C54.1813 4.9816 54.942 5.74233 54.942 6.63804V53.2393H54.9543Z" fill="#6F4CF5"/>
<path d="M44.354 12.3809H15.765C14.3663 12.3809 13.2129 13.5342 13.2129 14.933C13.2129 16.3318 14.3663 17.4852 15.765 17.4852H44.354C45.7528 17.4852 46.9061 16.3318 46.9061 14.933C46.9061 13.5342 45.765 12.3809 44.354 12.3809Z" fill="#6F4CF5"/>
<path d="M44.354 27.4473H15.765C14.3663 27.4473 13.2129 28.6006 13.2129 29.9994C13.2129 31.3982 14.3663 32.5516 15.765 32.5516H44.354C45.7528 32.5516 46.9061 31.3982 46.9061 29.9994C46.9061 28.6006 45.765 27.4473 44.354 27.4473Z" fill="#6F4CF5"/>
<path d="M44.2681 42.2949H15.6791C14.2803 42.2949 13.127 43.4483 13.127 44.8471C13.127 46.2458 14.2803 47.3992 15.6791 47.3992H44.2681C45.6668 47.3992 46.8202 46.2458 46.8202 44.8471C46.8202 43.4483 45.6791 42.2949 44.2681 42.2949Z" fill="#6F4CF5"/>
</g>
<defs>
<clipPath id="clip0_1443_712">
<rect width="60" height="60" fill="white"/>
</clipPath>
</defs>
</svg>
