<svg width="60" height="60" viewBox="0 0 60 60" fill="none" xmlns="http://www.w3.org/2000/svg">
<path d="M29.9999 0C13.4578 0 0 13.458 0 29.9999C0 46.5417 13.4578 59.9998 29.9999 59.9998C46.542 59.9998 59.9998 46.5417 59.9998 29.9999C59.9998 13.458 46.542 0 29.9999 0ZM30.4839 56.2416C27.6085 56.2416 24.7287 54.2863 22.3747 50.7356C21.3901 49.2503 20.5226 47.5222 19.788 45.6177H28.3297V50.2679C28.3297 51.1906 29.0776 51.9383 30.0001 51.9383C30.9226 51.9383 31.6705 51.1906 31.6705 50.2679V45.6177H41.1621C38.6934 52.0189 34.7867 56.2416 30.4839 56.2416ZM3.39474 31.6703H8.73742C9.38799 34.2724 11.5215 36.2918 14.1846 36.7769C14.434 38.699 14.7835 40.5374 15.2224 42.2766H6.34114C4.6685 39.0663 3.63105 35.4753 3.39474 31.6703ZM31.6703 3.86914C34.7441 4.43063 37.6769 7.15319 39.9295 11.5629C39.0796 12.2965 38.44 13.2665 38.1144 14.3708H31.6701V3.86914H31.6703ZM43.7889 18.6163C42.369 18.6163 41.2135 17.461 41.2135 16.041C41.2135 14.6209 42.3688 13.4656 43.7889 13.4656C45.209 13.4656 46.3642 14.6209 46.3642 16.041C46.3642 17.461 45.209 18.6163 43.7889 18.6163ZM38.1146 17.7114C38.785 19.9845 40.7855 21.6925 43.212 21.9284C43.5626 24.0024 43.7729 26.1463 43.8448 28.3295H31.6705V17.7114H38.1146ZM28.3295 28.3295H22.1068C21.5284 26.0163 19.7782 24.163 17.5258 23.4389C17.7951 21.4442 18.1898 19.5239 18.6925 17.7114H28.3295V28.3295ZM15.4222 33.5496C13.4649 33.5496 11.8725 31.9574 11.8725 29.9999C11.8725 28.0424 13.4647 26.4501 15.4222 26.4501C17.3797 26.4501 18.972 28.0424 18.972 29.9999C18.972 31.9574 17.3795 33.5496 15.4222 33.5496ZM14.1868 23.2227C11.5228 23.7071 9.38822 25.7267 8.73742 28.3297H3.39474C3.6315 24.5202 4.67117 20.9248 6.34738 17.7116H15.2387C14.789 19.4767 14.4347 21.3222 14.1868 23.2227ZM17.5283 36.56C19.7796 35.8354 21.5286 33.9826 22.1068 31.6703H28.3295V42.2766H18.6878C18.1869 40.4679 17.7969 38.5493 17.5283 36.56ZM31.6703 42.2766V31.6703H43.8459C43.7176 35.459 43.1572 39.0589 42.2621 42.2766H31.6703ZM47.1881 31.6703H51.2702C52.1927 31.6703 52.9406 30.9226 52.9406 29.9999C52.9406 29.0771 52.1927 28.3295 51.2702 28.3295H47.1874C47.1135 25.9336 46.8821 23.579 46.4934 21.3001C47.9157 20.5658 49.0033 19.2722 49.4636 17.7114H53.6528C55.5723 21.391 56.6594 25.5706 56.6594 29.9999C56.6594 34.4245 55.5745 38.6001 53.6591 42.2766H45.7419C46.5809 38.9687 47.0738 35.3824 47.1881 31.6703ZM51.5831 14.3705H49.4634C48.7407 11.9195 46.4711 10.1248 43.7891 10.1248C43.5125 10.1248 43.2405 10.1453 42.9739 10.1822C41.9893 8.23318 40.871 6.54516 39.6494 5.14846C44.4588 7.02268 48.5941 10.2544 51.5831 14.3705ZM28.3295 3.39474V14.3708H19.7898C20.505 12.5186 21.3475 10.8348 22.3015 9.37597C22.8064 8.60379 22.5897 7.56857 21.8175 7.06366C21.0453 6.55852 20.0101 6.77568 19.5052 7.54764C18.2221 9.51005 17.1236 11.8217 16.2387 14.3708H8.41692C12.9594 8.11513 20.1504 3.903 28.3295 3.39474ZM8.40824 45.6174H16.2165C17.6054 49.6327 19.513 52.9588 21.7698 55.3571C16.3501 53.5938 11.6878 50.1389 8.40824 45.6174ZM39.6687 54.8437C40.7278 53.6248 41.7124 52.1826 42.6042 50.5298C43.4198 49.0182 44.131 47.3689 44.7395 45.6174H51.5915C48.6059 49.7338 44.4747 52.9669 39.6687 54.8437Z" fill="#0048E5"/>
</svg>
