<svg width="60" height="60" viewBox="0 0 60 60" fill="none" xmlns="http://www.w3.org/2000/svg">
<g clip-path="url(#clip0_1443_678)">
<path d="M30 37.348C29.809 37.348 29.6181 37.3033 29.4431 37.214L10.4082 27.4941V55.1031C10.4082 55.7794 10.9564 56.3276 11.6327 56.3276H48.3674C49.0435 56.3276 49.5919 55.7794 49.5919 55.1031V27.4941L30.5569 37.2141C30.382 37.3034 30.1911 37.348 30 37.348Z" fill="#6F4CF5"/>
<path d="M58.7754 34.8983H56.9387V21.2928L59.3323 20.0705C59.7453 19.8596 60.0038 19.4333 59.9999 18.9696C59.996 18.5058 59.7303 18.0841 59.3137 17.8802L30.5382 3.79854C30.1987 3.63226 29.8013 3.63226 29.4618 3.79854L0.686248 17.8802C0.269677 18.0839 0.0039623 18.5058 4.39278e-05 18.9696C-0.00387444 19.4334 0.254615 19.8597 0.667636 20.0705L29.4431 34.7644C29.6181 34.8537 29.809 34.8984 30 34.8984C30.1911 34.8984 30.382 34.8537 30.5569 34.7644L54.4897 22.5433V34.8983H52.653C51.9768 34.8983 51.4285 35.4465 51.4285 36.1227V47.1432C51.4285 47.8194 51.9768 48.3676 52.653 48.3676H58.7754C59.4516 48.3676 59.9999 47.8194 59.9999 47.1432V36.1227C59.9999 35.4465 59.4517 34.8983 58.7754 34.8983ZM31.8367 19.5921H28.1632V17.1432H31.8367V19.5921ZM57.5509 45.9187H53.8775V37.3472H57.5509V45.9187Z" fill="#6F4CF5"/>
</g>
<defs>
<clipPath id="clip0_1443_678">
<rect width="60" height="60" fill="white"/>
</clipPath>
</defs>
</svg>
