<svg width="60" height="60" viewBox="0 0 60 60" fill="none" xmlns="http://www.w3.org/2000/svg">
<path d="M32.3588 4.07141H27.6445V26.0714H32.3588V4.07141Z" fill="#0052B4"/>
<path d="M44.1445 13.5H27.6445V4.07141H44.1445L41.0017 8.7857L44.1445 13.5Z" fill="#FF9811"/>
<path d="M44.1445 13.5H27.6445L44.1445 4.07141L41.0017 8.7857L44.1445 13.5Z" fill="#FF5023"/>
<path d="M8 55.9286H52L30 21.3572L8 55.9286Z" fill="#0052B4"/>
<path d="M30 55.9286H52L30 21.3572V55.9286Z" fill="#006DF0"/>
<path d="M38 33.9286L30 21.3572L22 33.9286H38Z" fill="#78B9EB"/>
<path d="M38 33.9286L30 21.3572V33.9286H38Z" fill="#AED5F3"/>
<path d="M30 55.9286H60L44.9999 32.3572L30 55.9286Z" fill="#0052B4"/>
<path d="M45 55.9286H60.0001L45 32.3572V55.9286Z" fill="#006DF0"/>
<path d="M50.4559 40.9287L45.0013 32.3572L39.5469 40.9287H50.4559Z" fill="#78B9EB"/>
<path d="M50.4546 40.9287L45 32.3572V40.9287H50.4546Z" fill="#AED5F3"/>
<path d="M0 55.9286H30L14.9999 32.3572L0 55.9286Z" fill="#0052B4"/>
<path d="M15 55.9286H30.0001L15 32.3572V55.9286Z" fill="#006DF0"/>
<path d="M20.4559 40.9287L15.0013 32.3572L9.54688 40.9287H20.4559Z" fill="#78B9EB"/>
<path d="M20.4546 40.9287L15 32.3572V40.9287H20.4546Z" fill="#AED5F3"/>
</svg>
