<svg width="50" height="58" viewBox="0 0 50 58" fill="none" xmlns="http://www.w3.org/2000/svg">
<path d="M46.575 41.4336C44.9344 40.4258 42.4618 38.9023 42.4969 37.2852C42.743 26.9375 40.2703 19.0508 35.3602 14.5039C34.2352 13.4609 32.993 12.6055 31.6571 11.9492C32.5946 10.7422 33.1453 9.27734 33.1453 7.69531C33.1453 3.61719 29.4891 0.289062 24.9891 0.289062C20.4891 0.289062 16.8328 3.61719 16.8328 7.69531C16.8328 9.27734 17.3836 10.7422 18.3211 11.9492C16.9852 12.6055 15.743 13.4609 14.618 14.5039C9.70784 19.0625 7.24691 26.9375 7.48128 37.2852C7.51644 38.9023 5.04378 40.4258 3.40316 41.4336C1.80941 42.418 -0.18278 43.6484 0.520345 45.7109C1.22347 47.7734 2.26644 48.2539 14.8524 48.3594C15.4266 52.9766 19.575 57.7109 24.9891 57.7109C30.4032 57.7109 34.5399 52.9766 35.1258 48.3594C47.7118 48.2539 48.7664 47.7734 49.4578 45.7109C50.161 43.6484 48.1805 42.418 46.575 41.4336ZM25.0008 5.07031C26.5946 5.07031 27.8836 6.24219 27.8836 7.69531C27.8836 9.13672 26.5946 10.3203 25.0008 10.3203C23.4071 10.3203 22.118 9.14844 22.118 7.69531C22.118 6.25391 23.4071 5.07031 25.0008 5.07031ZM25.0008 52.9297C22.7743 52.9297 20.7469 50.6211 20.2078 48.3945C21.5907 48.3945 28.411 48.3945 29.7938 48.3945C29.2547 50.6211 27.2274 52.9297 25.0008 52.9297ZM9.21566 43.4727C11.0907 41.9844 12.825 39.957 12.7547 37.1914C12.5438 28.2852 14.5477 21.418 18.3914 17.8555C20.243 16.1328 22.4696 15.2305 25.0008 15.1602C27.5321 15.2305 29.7586 16.1328 31.6102 17.8555C35.4539 21.418 37.4461 28.2852 37.2469 37.1914C37.1883 39.957 38.911 41.9844 40.786 43.4727C36.4032 43.6016 13.5985 43.6016 9.21566 43.4727Z" fill="#0048E5"/>
</svg>
