<svg width="60" height="60" viewBox="0 0 60 60" fill="none" xmlns="http://www.w3.org/2000/svg">
<path d="M28.115 59.9995V59.9663V52.103C27.0955 52.5708 25.9788 52.8188 24.8437 52.8188C23.7765 52.8188 22.741 52.6076 21.766 52.1911C20.8252 51.7892 19.9826 51.2148 19.2618 50.484C17.7771 48.9786 16.9755 46.9843 17.0048 44.8687C17.0332 42.8219 17.8515 40.893 19.3091 39.4374C20.7667 37.9817 22.6967 37.1659 24.7438 37.1402C24.7772 37.1396 24.8103 37.1395 24.8438 37.1395C25.979 37.1395 27.0956 37.3876 28.1151 37.8553L28.1228 30.0251H18.7436C18.9709 29.6284 19.3065 29.1342 19.692 28.5716C20.4375 27.4836 20.9926 26.2251 20.9747 24.7997C20.9343 21.585 18.3121 18.9591 15.0975 18.9146C15.0694 18.9142 15.041 18.9141 15.013 18.9141C11.72 18.9138 9.0508 21.5833 9.0508 24.8763C9.0508 26.2699 9.59757 27.5012 10.3303 28.5669C10.6866 29.085 11.055 29.6281 11.2823 30.0251H2.52913C1.14665 30.0251 0.0258789 31.1459 0.0258789 32.5284V57.4962C0.0258789 58.8787 1.14665 59.9994 2.52913 59.9994L28.115 59.9995Z" fill="#6F4CF5"/>
<path d="M52.1112 31.8517C52.5789 32.8712 52.827 33.9879 52.827 35.123C52.827 37.2172 52.0116 39.1859 50.531 40.6666C49.0503 42.1473 47.0816 42.9626 44.9874 42.9626C44.9509 42.9626 44.9138 42.9623 44.8769 42.9618C42.83 42.9335 40.9012 42.1152 39.4455 40.6576C37.9898 39.2 37.174 37.27 37.1483 35.2231C37.1337 34.0522 37.3817 32.9009 37.8632 31.8516H31.8776H30.9389H29.9914L29.9925 41.2488C29.6609 41.059 29.047 40.6457 28.482 40.2561C27.4355 39.534 26.2133 39.0174 24.8436 39.0174C24.818 39.0174 24.7927 39.0175 24.767 39.0179C21.5523 39.0583 18.9265 41.6806 18.8819 44.8951C18.8667 45.9965 19.1503 47.0304 19.6566 47.9212C20.6818 49.725 22.6204 50.9419 24.8436 50.9419C26.2133 50.9419 27.4074 50.383 28.4818 49.7032C29.1438 49.2844 29.6608 48.9002 29.9924 48.7104V48.7545V59.9668H30H30.9387H31.8775H57.4634C58.8459 59.9668 59.9667 58.846 59.9667 57.4635V31.8517H52.1112Z" fill="#FF5996"/>
<path d="M57.471 0H30V11.5003C30 11.5003 31.0068 10.6287 31.3286 10.4003C32.3616 9.54153 33.6892 9.02486 35.1375 9.02486C38.4584 9.02486 41.1452 11.74 41.0992 15.0716C41.0547 18.2861 38.4288 20.9084 35.2142 20.9488C35.1887 20.9491 35.163 20.9493 35.1374 20.9493C33.689 20.9493 32.3616 20.4327 31.3285 19.5738C31.0066 19.3455 30 18.4739 30 18.4739V29.9743H31.8774H41.2565C41.1696 30.1521 40.6669 30.9144 40.2561 31.4947C39.51 32.5483 39.008 33.8048 39.0254 35.1998C39.0658 38.4143 41.6881 41.0402 44.9027 41.0848C44.9307 41.0852 44.9591 41.0854 44.9873 41.0854C46.5291 41.0854 47.9341 40.5001 48.9924 39.54C50.1946 38.4492 50.9494 36.8744 50.9494 35.1232C50.9494 33.7569 50.4345 32.538 49.7166 31.4924C49.2593 30.8263 48.9137 30.3148 48.7287 29.9925C48.725 29.9863 48.7216 29.9805 48.718 29.9743H59.8032H59.9743V28.9093V2.50325C59.9743 1.12077 58.8536 0 57.471 0Z" fill="#FF5996"/>
</svg>
