<svg width="60" height="60" viewBox="0 0 60 60" fill="none" xmlns="http://www.w3.org/2000/svg">
<path d="M16.359 27.7228C18.2662 27.7228 19.8122 26.1767 19.8122 24.2695C19.8122 22.3624 18.2662 20.8163 16.359 20.8163H12.5332C13.888 18.2553 15.8064 15.9858 18.1333 14.2325C21.5719 11.6414 25.6727 10.2719 29.9924 10.2719C32.269 10.2719 34.499 10.6554 36.6202 11.4118C38.6705 12.1429 40.5773 13.2057 42.2875 14.5706C45.7106 17.3027 48.1563 21.1362 49.1738 25.365C49.5546 26.9478 50.9691 28.0112 52.5284 28.0111C52.7956 28.0111 53.0677 27.9797 53.339 27.9145C55.1932 27.4683 56.3348 25.6035 55.8886 23.7492C55.1941 20.8635 54.0268 18.1307 52.4191 15.6265C50.8407 13.1683 48.8815 10.9969 46.5956 9.17263C44.287 7.33012 41.7113 5.89483 38.9398 4.90655C36.072 3.88393 33.0616 3.36536 29.9923 3.36536C27.053 3.36536 24.1634 3.84184 21.4036 4.78144C18.7352 5.69 16.2365 7.014 13.977 8.7166C11.7441 10.3991 9.79696 12.4116 8.18973 14.698C7.73049 15.3513 7.30321 16.0232 6.90638 16.711V11.1878C6.90638 9.28063 5.36032 7.73457 3.45316 7.73457C1.54599 7.73457 0 9.2807 0 11.1879V24.2696C0 26.1768 1.54606 27.7228 3.45322 27.7228L16.359 27.7228Z" fill="#6F4CF5"/>
<path d="M56.5478 32.2772H43.6419C41.7348 32.2772 40.1886 33.8233 40.1886 35.7304C40.1886 37.6376 41.7348 39.1836 43.6419 39.1836H47.4586C45.9166 42.1132 43.6629 44.6097 40.8805 46.4549C37.654 48.5947 33.8923 49.7265 30.0014 49.7281C27.7272 49.7273 25.4997 49.3438 23.3806 48.5882C21.3303 47.8571 19.4236 46.7943 17.7133 45.4293C14.2901 42.6973 11.8445 38.8638 10.827 34.6351C10.3809 32.7809 8.51619 31.6394 6.66177 32.0855C4.80755 32.5316 3.66608 34.3965 4.11224 36.2506C4.80657 39.1364 5.97389 41.8693 7.58178 44.3734C9.16006 46.8316 11.1193 49.003 13.4052 50.8273C15.7138 52.6699 18.2895 54.1051 21.061 55.0934C23.9207 56.1131 26.9221 56.6313 29.9824 56.6343C29.9861 56.6343 29.9896 56.6345 29.9933 56.6345C29.9961 56.6345 29.9988 56.6345 30.0016 56.6345C30.0039 56.6345 30.0062 56.6345 30.0085 56.6345C30.0114 56.6345 30.0142 56.6344 30.0171 56.6344C35.2646 56.6298 40.3406 55.1004 44.6979 52.2106C48.1731 49.9059 51.0374 46.8461 53.0945 43.2654V48.8122C53.0945 50.7193 54.6405 52.2654 56.5478 52.2654C58.4549 52.2654 60.001 50.7193 60.001 48.8122V35.7304C60.001 33.8233 58.4549 32.2772 56.5478 32.2772Z" fill="#FF5996"/>
</svg>
