<svg width="60" height="54" viewBox="0 0 60 54" fill="none" xmlns="http://www.w3.org/2000/svg">
<path d="M16.359 24.7229C18.2662 24.7229 19.8122 23.1768 19.8122 21.2697C19.8122 19.3625 18.2662 17.8164 16.359 17.8164H12.5332C13.888 15.2555 15.8064 12.9859 18.1333 11.2326C21.5719 8.64151 25.6727 7.27199 29.9924 7.27199C32.269 7.27199 34.499 7.65553 36.6202 8.41195C38.6705 9.14305 40.5773 10.2059 42.2875 11.5708C45.7106 14.3028 48.1563 18.1363 49.1738 22.3651C49.5546 23.9479 50.9691 25.0114 52.5284 25.0112C52.7956 25.0112 53.0677 24.9799 53.339 24.9146C55.1932 24.4685 56.3348 22.6036 55.8886 20.7494C55.1941 17.8637 54.0268 15.1308 52.4191 12.6266C50.8407 10.1684 48.8815 7.99704 46.5956 6.17275C44.287 4.33024 41.7113 2.89495 38.9398 1.90667C36.072 0.884054 33.0616 0.365479 29.9923 0.365479C27.053 0.365479 24.1634 0.841958 21.4036 1.78156C18.7352 2.69012 16.2365 4.01412 13.977 5.71673C11.7441 7.39927 9.79696 9.41168 8.18973 11.6981C7.73049 12.3514 7.30321 13.0233 6.90638 13.7112V8.18792C6.90638 6.28075 5.36032 4.7347 3.45316 4.7347C1.54599 4.7347 0 6.28082 0 8.18798V21.2697C0 23.1769 1.54606 24.7229 3.45322 24.7229L16.359 24.7229Z" fill="#0048E5"/>
<path d="M56.5478 29.2773H43.6419C41.7348 29.2773 40.1886 30.8234 40.1886 32.7305C40.1886 34.6378 41.7348 36.1838 43.6419 36.1838H47.4586C45.9166 39.1133 43.6629 41.6099 40.8805 43.4551C37.654 45.5948 33.8923 46.7266 30.0014 46.7282C27.7272 46.7274 25.4997 46.3439 23.3806 45.5883C21.3303 44.8572 19.4236 43.7944 17.7133 42.4294C14.2901 39.6974 11.8445 35.864 10.827 31.6352C10.3809 29.781 8.51619 28.6396 6.66177 29.0856C4.80755 29.5317 3.66608 31.3966 4.11224 33.2508C4.80657 36.1365 5.97389 38.8694 7.58178 41.3735C9.16006 43.8318 11.1193 46.0032 13.4052 47.8274C15.7138 49.67 18.2895 51.1052 21.061 52.0935C23.9207 53.1132 26.9221 53.6314 29.9824 53.6344C29.9861 53.6344 29.9896 53.6346 29.9933 53.6346C29.9961 53.6346 29.9988 53.6346 30.0016 53.6346C30.0039 53.6346 30.0062 53.6346 30.0085 53.6346C30.0114 53.6346 30.0142 53.6345 30.0171 53.6345C35.2646 53.6299 40.3406 52.1005 44.6979 49.2107C48.1731 46.906 51.0374 43.8462 53.0945 40.2655V45.8123C53.0945 47.7194 54.6405 49.2656 56.5478 49.2656C58.4549 49.2656 60.001 47.7194 60.001 45.8123V32.7305C60.001 30.8234 58.4549 29.2773 56.5478 29.2773Z" fill="#80E9FF"/>
</svg>
