<svg width="50" height="46" viewBox="0 0 50 46" fill="none" xmlns="http://www.w3.org/2000/svg">
<path d="M25.125 11.525C22.8625 11.525 21.9375 9.92498 23.0625 7.96248C23.7125 6.82498 23.325 5.37498 22.1875 4.72498L20.025 3.48748C19.0375 2.89998 17.7625 3.24998 17.175 4.23748L17.0375 4.47498C15.9125 6.43748 14.0625 6.43748 12.925 4.47498L12.7875 4.23748C12.225 3.24998 10.95 2.89998 9.9625 3.48748L7.8 4.72498C6.6625 5.37498 6.275 6.83748 6.925 7.97498C8.0625 9.92498 7.1375 11.525 4.875 11.525C3.575 11.525 2.5 12.5875 2.5 13.9V16.1C2.5 17.4 3.5625 18.475 4.875 18.475C7.1375 18.475 8.0625 20.075 6.925 22.0375C6.275 23.175 6.6625 24.625 7.8 25.275L9.9625 26.5125C10.95 27.1 12.225 26.75 12.8125 25.7625L12.95 25.525C14.075 23.5625 15.925 23.5625 17.0625 25.525L17.2 25.7625C17.7875 26.75 19.0625 27.1 20.05 26.5125L22.2125 25.275C23.35 24.625 23.7375 23.1625 23.0875 22.0375C21.95 20.075 22.875 18.475 25.1375 18.475C26.4375 18.475 27.5125 17.4125 27.5125 16.1V13.9C27.5 12.6 26.4375 11.525 25.125 11.525ZM15 19.0625C12.7625 19.0625 10.9375 17.2375 10.9375 15C10.9375 12.7625 12.7625 10.9375 15 10.9375C17.2375 10.9375 19.0625 12.7625 19.0625 15C19.0625 17.2375 17.2375 19.0625 15 19.0625Z" fill="#94E3FC"/>
<path d="M43.4987 21.3667C40.482 21.3667 39.2487 19.2333 40.7487 16.6167C41.6154 15.1 41.0987 13.1667 39.582 12.3L36.6987 10.65C35.382 9.86666 33.682 10.3333 32.8987 11.65L32.7154 11.9667C31.2154 14.5833 28.7487 14.5833 27.232 11.9667L27.0487 11.65C26.2987 10.3333 24.5987 9.86666 23.282 10.65L20.3987 12.3C18.882 13.1667 18.3654 15.1167 19.232 16.6333C20.7487 19.2333 19.5154 21.3667 16.4987 21.3667C14.7654 21.3667 13.332 22.7833 13.332 24.5333V27.4667C13.332 29.2 14.7487 30.6333 16.4987 30.6333C19.5154 30.6333 20.7487 32.7667 19.232 35.3833C18.3654 36.9 18.882 38.8333 20.3987 39.7L23.282 41.35C24.5987 42.1333 26.2987 41.6667 27.082 40.35L27.2654 40.0333C28.7654 37.4167 31.232 37.4167 32.7487 40.0333L32.932 40.35C33.7154 41.6667 35.4154 42.1333 36.732 41.35L39.6154 39.7C41.132 38.8333 41.6487 36.8833 40.782 35.3833C39.2654 32.7667 40.4987 30.6333 43.5154 30.6333C45.2487 30.6333 46.682 29.2167 46.682 27.4667V24.5333C46.6654 22.8 45.2487 21.3667 43.4987 21.3667ZM29.9987 31.4167C27.0154 31.4167 24.582 28.9833 24.582 26C24.582 23.0167 27.0154 20.5833 29.9987 20.5833C32.982 20.5833 35.4154 23.0167 35.4154 26C35.4154 28.9833 32.982 31.4167 29.9987 31.4167Z" fill="#0052B4" fill-opacity="0.5"/>
</svg>
