<svg width="70" height="45" viewBox="0 0 70 45" fill="none" xmlns="http://www.w3.org/2000/svg">
<g clip-path="url(#clip0_1288_4070)">
<path d="M24.248 0L0 24.248L20.752 45L45 20.752V0H24.248ZM36.6992 12.4512C35.5531 13.5973 33.6948 13.5973 32.5487 12.4512C31.4026 11.3051 31.4026 9.44684 32.5487 8.30074C33.6948 7.15465 35.5531 7.15465 36.6992 8.30074C37.8453 9.44701 37.8453 11.3051 36.6992 12.4512Z" fill="#94E3FC"/>
</g>
<g clip-path="url(#clip1_1288_4070)">
<path d="M25 20.752L49.248 45L70 24.248L45.752 0H25L25 20.752ZM37.4512 8.30083C38.5973 9.44692 38.5973 11.3052 37.4512 12.4513C36.3051 13.5974 34.4468 13.5974 33.3007 12.4513C32.1546 11.3052 32.1546 9.44692 33.3007 8.30083C34.447 7.15474 36.3051 7.15474 37.4512 8.30083Z" fill="#0052B4" fill-opacity="0.5"/>
</g>
<defs>
<clipPath id="clip0_1288_4070">
<rect width="45" height="45" fill="white"/>
</clipPath>
<clipPath id="clip1_1288_4070">
<rect width="45" height="45" fill="white" transform="translate(25 45) rotate(-90)"/>
</clipPath>
</defs>
</svg>
