<svg width="51" height="43" viewBox="0 0 51 43" fill="none" xmlns="http://www.w3.org/2000/svg">
<rect y="1" width="36.4815" height="32.8333" rx="5" fill="#0DE4E4"/>
<path d="M9.24219 10.1797L3.98438 8.21875V6.39844L10.7344 9.29688V10.5312L9.24219 10.1797ZM3.98438 11.8672L9.25781 9.86719L10.7344 9.55469V10.7812L3.98438 13.6875V11.8672ZM18.4531 15V16.4688H11.3281V15H18.4531Z" fill="white"/>
<path d="M45.9612 23.9092C43.6233 23.9092 42.6674 22.2559 43.8299 20.2279C44.5016 19.0525 44.1012 17.5542 42.9258 16.8825L40.6912 15.6038C39.6708 14.9967 38.3533 15.3584 37.7462 16.3788L37.6041 16.6242C36.4416 18.6521 34.5299 18.6521 33.3545 16.6242L33.2124 16.3788C32.6312 15.3584 31.3137 14.9967 30.2933 15.6038L28.0587 16.8825C26.8833 17.5542 26.4829 19.0654 27.1545 20.2409C28.3299 22.2559 27.3741 23.9092 25.0362 23.9092C23.6929 23.9092 22.582 25.0071 22.582 26.3634V28.6367C22.582 29.98 23.6799 31.0909 25.0362 31.0909C27.3741 31.0909 28.3299 32.7442 27.1545 34.7721C26.4829 35.9475 26.8833 37.4459 28.0587 38.1175L30.2933 39.3963C31.3137 40.0034 32.6312 39.6417 33.2383 38.6213L33.3804 38.3759C34.5429 36.3479 36.4545 36.3479 37.6299 38.3759L37.772 38.6213C38.3791 39.6417 39.6966 40.0034 40.717 39.3963L42.9516 38.1175C44.127 37.4459 44.5274 35.9346 43.8558 34.7721C42.6804 32.7442 43.6362 31.0909 45.9741 31.0909C47.3174 31.0909 48.4283 29.9929 48.4283 28.6367V26.3634C48.4154 25.02 47.3174 23.9092 45.9612 23.9092ZM35.4987 31.6979C33.1866 31.6979 31.3008 29.8121 31.3008 27.5C31.3008 25.1879 33.1866 23.3021 35.4987 23.3021C37.8108 23.3021 39.6966 25.1879 39.6966 27.5C39.6966 29.8121 37.8108 31.6979 35.4987 31.6979Z" fill="#6F4CF5" fill-opacity="0.8"/>
</svg>
