<svg width="60" height="60" viewBox="0 0 60 60" fill="none" xmlns="http://www.w3.org/2000/svg">
<path d="M28.75 33.125C25.907 33.125 23.1277 32.282 20.7637 30.7025C18.3997 29.1228 16.5573 26.8778 15.4693 24.2511C14.3812 21.6244 14.0966 18.7341 14.6512 15.9456C15.2059 13.1571 16.575 10.5957 18.5854 8.58535C20.5957 6.57498 23.1571 5.20588 25.9455 4.65123C28.734 4.09655 31.6245 4.38123 34.251 5.46925C36.8778 6.55725 39.1228 8.39973 40.7025 10.7637C42.282 13.1277 43.125 15.9069 43.125 18.75C43.1185 22.5605 41.6017 26.213 38.9072 28.9072C36.213 31.6017 32.5605 33.1185 28.75 33.125ZM28.75 8.125C26.6485 8.125 24.5944 8.74815 22.8471 9.91565C21.0998 11.0831 19.738 12.7425 18.9338 14.684C18.1296 16.6255 17.9192 18.7618 18.3292 20.8229C18.7391 22.8839 19.7511 24.7771 21.237 26.263C22.7229 27.749 24.6161 28.761 26.6773 29.1707C28.7383 29.5807 30.8745 29.3705 32.816 28.5662C34.7575 27.762 36.417 26.4003 37.5842 24.653C38.7518 22.9057 39.375 20.8514 39.375 18.75C39.3685 15.9341 38.2467 13.2354 36.2558 11.2443C34.2645 9.25315 31.566 8.1316 28.75 8.125Z" fill="#FF5996"/>
<path d="M6.25 53.125C5.75472 53.1185 5.28158 52.919 4.93133 52.5688C4.5811 52.2185 4.38147 51.7453 4.375 51.25C4.3882 45.4525 6.69712 39.8962 10.7966 35.7967C14.8961 31.6972 20.4524 29.3882 26.25 29.375H31.25C31.7472 29.375 32.2243 29.5725 32.5758 29.9242C32.9275 30.2757 33.125 30.7528 33.125 31.25C33.125 31.7473 32.9275 32.2243 32.5758 32.5758C32.2243 32.9275 31.7472 33.125 31.25 33.125H26.25C21.445 33.1315 16.8386 35.0433 13.441 38.441C10.0433 41.8387 8.13162 46.445 8.125 51.25C8.11853 51.7453 7.9189 52.2185 7.56868 52.5688C7.21843 52.919 6.74528 53.1185 6.25 53.125Z" fill="#FF5996"/>
<path d="M36.2494 55.6249C35.7679 55.5854 35.3199 55.3617 34.9994 54.9999L24.9994 44.9999C24.8324 44.6499 24.7778 44.2569 24.8434 43.8749C24.909 43.4927 25.0914 43.1402 25.3657 42.8659C25.6397 42.5919 25.9922 42.4094 26.3744 42.3439C26.7564 42.2784 27.1497 42.3329 27.4994 42.4999L36.0744 51.0749L52.3494 32.4999C52.5137 32.3162 52.7124 32.1664 52.9344 32.0594C53.1564 31.9522 53.3974 31.8899 53.6434 31.8762C53.8894 31.8622 54.1359 31.8969 54.3684 31.9782C54.6012 32.0594 54.8157 32.1857 54.9994 32.3499C55.1834 32.5142 55.3329 32.7129 55.4402 32.9349C55.5472 33.1569 55.6094 33.3977 55.6232 33.6439C55.6372 33.8899 55.6024 34.1364 55.5212 34.3689C55.4399 34.6017 55.3137 34.8162 55.1494 34.9999L37.6494 54.9999C37.4859 55.1947 37.2837 55.3529 37.0557 55.4649C36.8274 55.5767 36.5784 55.6399 36.3244 55.6499L36.2494 55.6249Z" fill="#6F4CF5"/>
</svg>
