<svg width="60" height="60" viewBox="0 0 60 60" fill="none" xmlns="http://www.w3.org/2000/svg">
<circle cx="30" cy="30" r="30" fill="#FF5996"/>
<path d="M30 30C33.4518 30 36.25 27.2018 36.25 23.75C36.25 20.2982 33.4518 17.5 30 17.5C26.5482 17.5 23.75 20.2982 23.75 23.75C23.75 27.2018 26.5482 30 30 30Z" fill="white"/>
<path d="M30 33.125C23.7375 33.125 18.6375 37.325 18.6375 42.5C18.6375 42.85 18.9125 43.125 19.2625 43.125H40.7375C41.0875 43.125 41.3625 42.85 41.3625 42.5C41.3625 37.325 36.2625 33.125 30 33.125Z" fill="white"/>
<path d="M45 2.5C38.125 2.5 32.5 8.125 32.5 15C32.5 21.875 38.125 27.5 45 27.5C51.875 27.5 57.5 21.875 57.5 15C57.5 8.125 51.875 2.5 45 2.5ZM50.25 12.875L44.25 18.875C43.75 19.375 43 19.375 42.5 18.875L39.75 16.125C39.25 15.625 39.25 14.875 39.75 14.375C40.25 13.875 41 13.875 41.5 14.375L43.375 16.25L48.5 11.125C49 10.625 49.75 10.625 50.25 11.125C50.75 11.625 50.75 12.375 50.25 12.875Z" fill="#664EFF" fill-opacity="0.8"/>
</svg>
