<svg width="60" height="52" viewBox="0 0 60 52" fill="none" xmlns="http://www.w3.org/2000/svg">
<path d="M30 0.544189C18.6675 0.544189 8.01336 4.95724 0 12.9706L3.99996 16.9706C10.9447 10.0258 20.1784 6.20105 30 6.20105C39.8216 6.20105 49.0551 10.0258 56 16.9706L60 12.9706C51.9866 4.95724 41.3325 0.544189 30 0.544189Z" fill="#7A73FF"/>
<path d="M8 20.9704L12 24.9704C16.808 20.1624 23.2005 17.5145 29.9999 17.5145C36.7993 17.5145 43.192 20.1624 47.9999 24.9704L51.9999 20.9704C46.1234 15.094 38.3104 11.8577 29.9999 11.8577C21.6894 11.8577 13.8765 15.0941 8 20.9704Z" fill="#0048E5"/>
<path d="M16 28.9706L20 32.9706C25.514 27.4567 34.486 27.4567 40.0001 32.9706L44 28.9706C36.2804 21.251 23.7196 21.251 16 28.9706Z" fill="#80E9FF"/>
<path d="M21.5156 42.9706C21.5156 47.6494 25.3221 51.4559 30.0009 51.4559V34.4854C25.3221 34.4854 21.5156 38.2918 21.5156 42.9706Z" fill="#80E9FF"/>
<path d="M30 34.4854V51.4559C34.6788 51.4559 38.4853 47.6494 38.4853 42.9706C38.4853 38.2918 34.6788 34.4854 30 34.4854Z" fill="#80E9FF"/>
</svg>
